<ttFont>
          <CharString index="0">
            rmoveto
            42 vlineto
            356 -231 222 -321 -325 -226 -222 -356 vhcurveto
            -42 vlineto
            -356 228 -220.97 325 321 228.99 220.97 356 vhcurveto
            -314 43 rmoveto
            -43 vlineto
            -205 -88 -123.99 -25 callgsubr
            -156 -83 -42 callsubr
            205 vhcurveto
            43 vlineto
            209 81 -18 callgsubr
            156 150 88 -118.99 -209 vhcurveto
            endchar
          </CharString>
          <CharString index="1">
            345.99 hlineto
            -541 61 callgsubr
            -77 callgsubr
            hlineto
            -219 hlineto
            -539.01 47 callgsubr
            346.01 hlineto
            90.99 280.98 rlineto
            508.01 hlineto
            -422.02 262 rmoveto
            168 519 169 -519 rlineto
            endchar
          </CharString>
          <CharString index="2">
            60 callsubr
            445.01 -259.99 273 -369.01 -370 -257 -273 -445.01 vhcurveto
            -85 callsubr
            vlineto
            -445.01 258.99 -271.99 370.01 368.99 258 271.99 445.01 vhcurveto
            30 callsubr
            63 rmoveto
            -63 vlineto
            -290 -107 -161 -191 -194 -106.99 161 290 vhcurveto
            63 vlineto
            293 105 156 193.99 191 109.02 -156 -293 vhcurveto
            endchar
          </CharString>
          <CharString index="3">
            314 hlineto
            -462 61 callsubr
            -83 hlineto
            -215 hlineto
            -456.99 47 callsubr
            314 hlineto
            76 209.98 rlineto
            435 hlineto
            -355 224 rmoveto
            134 372 138 -372 rlineto
            endchar
          </CharString>
          <CharString index="4">
            -495 -55.99 rmoveto
            -76 -66 callsubr
            45 65 86 54.99 75 141 hvcurveto
            112 -176.99 hlineto
            -48 1 callsubr
            -64.99 -46 -91.02 hhcurveto
            endchar
          </CharString>
          <CharString index="5">
            1309 -65 callsubr
            -364.01 hlineto
            -194.99 -409 -283.02 409 rlineto
            -362.99 hlineto
            264.99 -384 rlineto
            -152 32 callgsubr
            -63 -128 -221 vvcurveto
            -395 314 535.98 vlineto
            41 8.01 31 18.99 27 vhcurveto
            439.01 -634.98 rlineto
            362 hlineto
            -348 503.99 rlineto
            return
          </CharString>
          <CharString index="6">
            rmoveto
            -758 vlineto
            -57 119 callsubr
            -35 -95.01 hhcurveto
            -88 -57 45 103 hvcurveto
            702.01 -312 -700 vlineto
            -286 147 -115.99 214 128 97 -56 callsubr
            27 callgsubr
            -46 callsubr
            vhcurveto
            return
          </CharString>
          <CharString index="7">
            rmoveto
            -28 callgsubr
            -750 hlineto
            -128 -61.99 -52 -120 -120.02 -65 52 128 vhcurveto
            750 -313 -750 vlineto
            -278 201 -152.98 297 301 194 152.98 278 vhcurveto
            endchar
          </CharString>
          <CharString index="8">
            311.99 return
          </CharString>
          <CharString index="9">
            -338 -164.99 -132 -224 -191 163 -134 203.99 130 83 50.99 65 54.99 hvcurveto
            return
          </CharString>
          <CharString index="10">
            92 callgsubr
            -50 callsubr
            hvcurveto
            return
          </CharString>
          <CharString index="11">
            rmoveto
            -190 -642 -188 642 rlineto
            -333.99 hlineto
            378 -1088 -30 -77 rlineto
            -29 callgsubr
            -24 -41 -34 -112 -13.99 -14 15 callsubr
            -16 hhcurveto
            -233.99 vlineto
            -15.02 53 21 -5 60 hhcurveto
            237 76 167 109.02 -95 callsubr
            hvcurveto
            434.02 1242.99 rlineto
            endchar
          </CharString>
          <CharString index="12">
            37.99 return
          </CharString>
          <CharString index="13">
            251.99 return
          </CharString>
          <CharString index="14">
            327 vstem
            -50 callgsubr
            hmoveto
            321 hlineto
            70 710.98 rlineto
            166 16 61 -42 callgsubr
            111 hhcurveto
            111.99 64 -8 callsubr
            -156 hvcurveto
            1 -469.01 rlineto
            -203 156 callgsubr
            529 676.99 hlineto
            365 -2 -193.99 190 -369 hhcurveto
            -188 -226.98 -38 -57 -153 hvcurveto
            68 -235 48 19 82 24 53 9.01 rlinecurve
            0.98 -5.02 -3.99 -1.99 -5 -5 -5 -5.02 rlinecurve
            -54 -51 callgsubr
            -45 -106 -12 -107.99 rrcurveto
            return
          </CharString>
          <CharString index="15">
            rmoveto
            49 callsubr
            -81 -53 callgsubr
            81 hvcurveto
            26 callgsubr
            137 callsubr
            4 callsubr
            return
          </CharString>
          <CharString index="16">
            60 -74 callsubr
            -60 -60 -18 callsubr
            -53 callsubr
            return
          </CharString>
          <CharString index="17">
            60 callsubr
            hintmask 11011000
            445.01 -259.99 273 -369.01 -370 -257 -273 -445.01 vhcurveto
            -85 callsubr
            vlineto
            -445.01 258.99 -271.99 370.01 vhcurveto
            hintmask 11111000
            368.99 258 271.99 445.01 hvcurveto
            hintmask 11011000
            30 callsubr
            63 rmoveto
            -63 vlineto
            -290 -107 -161 -191 -194 -106.99 161 290 vhcurveto
            63 vlineto
            293 105 156 193.99 191 109.02 -156 -293 vhcurveto
            endchar
          </CharString>
          <CharString index="18">
            338.99 221 -29 callsubr
            395 hvcurveto
            665 -863.99 -252 537.99 -469 vlineto
            -164 110 callgsubr
            -77 callgsubr
            -195 -1 vhcurveto
            -71 -84.99 11 22 -101.01 hvcurveto
            -66 callsubr
            -237 rlineto
            return
          </CharString>
          <CharString index="19">
            85 -81 callsubr
            247.99 699.98 249.01 return
          </CharString>
          <CharString index="20">
            90.99 -102 callgsubr
            return
          </CharString>
          <CharString index="21">
            43 905.98 252 return
          </CharString>
          <CharString index="22">
            -60.99 return
          </CharString>
          <CharString index="23">
            -99 callgsubr
            hstem
            return
          </CharString>
          <CharString index="24">
            42.99 return
          </CharString>
          <CharString index="25">
            256 0 43 237.98 262 872.04 -99 callgsubr
            return
          </CharString>
          <CharString index="26">
            -15.99 return
          </CharString>
          <CharString index="27">
            313.02 return
          </CharString>
          <CharString index="28">
            -1455.98 return
          </CharString>
          <CharString index="29">
            -147 0 -78 callgsubr
            225.01001 -94 callsubr
            185.01 -94 callsubr
            return
          </CharString>
          <CharString index="30">
            rmoveto
            60.99 -62 callsubr
            10 callsubr
            return
          </CharString>
          <CharString index="31">
            59.99 return
          </CharString>
          <CharString index="32">
            -38 -20 234 -214 43 441.98 176 213 228 return
          </CharString>
          <CharString index="33">
            -83 callsubr
            40 53 -11 callgsubr
            return
          </CharString>
          <CharString index="34">
            -20 -86 callgsubr
            return
          </CharString>
          <CharString index="35">
            1200.99 return
          </CharString>
          <CharString index="36">
            rmoveto
            -314 -1079.99 hlineto
            -105 218.99 251 -53 222 hhcurveto
            return
          </CharString>
          <CharString index="37">
            -252 184 hlineto
            -47 66 callsubr
            127 callsubr
            -117 -76 vvcurveto
            hintmask 10011100
            -284 vlineto
            -103.02 -51 -47.99 -92 -23 -21.01 15 callsubr
            1 -21 vhcurveto
            hintmask 01011100
            -250.98 vlineto
            hintmask 10011100
            -8 54 -83 callsubr
            -5 58 hhcurveto
            233 137 71 callsubr
            246 hvcurveto
            339 vlineto
            29 callgsubr
            11 92 18 75 vhcurveto
            return
          </CharString>
          <CharString index="38">
            323.99 return
          </CharString>
          <CharString index="39">
            25 callsubr
            69.98 215.01 196.00002 -52 callsubr
            vstem
            694.99 return
          </CharString>
          <CharString index="40">
            hstem
            -87 callsubr
            return
          </CharString>
          <CharString index="41">
            -49.99 return
          </CharString>
          <CharString index="42">
            -72 callsubr
            rmoveto
            return
          </CharString>
          <CharString index="43">
            -203 -76 133 307.02 hvcurveto
            86 vlineto
            309 91.02 129.99 187.99 192 70 -88 -166.99 148 callgsubr
            vhcurveto
            324 hlineto
            300.01 -28 147 callgsubr
            221 -372 hhcurveto
            -368.99 -239 -272.02 -435 hvcurveto
            -77 callgsubr
            vlineto
            return
          </CharString>
          <CharString index="44">
            -42.99 return
          </CharString>
          <CharString index="45">
            43 40 53 -31 callsubr
            return
          </CharString>
          <CharString index="46">
            495.98 -343 rmoveto
            60 -62 callsubr
            -60 121 callsubr
            281.01 hmoveto
            59 -26 callgsubr
            40 53 54 -18 callsubr
            -95 callsubr
            -59 -60 -18 callsubr
            -53 callsubr
            return
          </CharString>
          <CharString index="47">
            7 -37 10 -33 12 17 callsubr
            rrcurveto
            314 17 hlineto
            return
          </CharString>
          <CharString index="48">
            288.99 return
          </CharString>
          <CharString index="49">
            0 43 811.99 227 222.98999 252 hstem
            43 callgsubr
            return
          </CharString>
          <CharString index="50">
            136.99 return
          </CharString>
          <CharString index="51">
            49.99 return
          </CharString>
          <CharString index="52">
            174.98 hmoveto
            326 -72 callsubr
            -427.99 -252 -48 callgsubr
            hlineto
            return
          </CharString>
          <CharString index="53">
            -43 callsubr
            318.99 371.99998 306.01 return
          </CharString>
          <CharString index="54">
            -90 callgsubr
            59 hvcurveto
            return
          </CharString>
          <CharString index="55">
            213.99 return
          </CharString>
          <CharString index="56">
            -74.02 return
          </CharString>
          <CharString index="57">
            -58 -45 -90 callgsubr
            58 return
          </CharString>
          <CharString index="58">
            133 hlineto
            280 hlineto
            333.99 243.02 128 callgsubr
            326 hvcurveto
            42 vlineto
            326 -243.02 -7 callgsubr
            -339.99 vhcurveto
            269 -604 rmoveto
            -212.99 -68.02 -97.02 -194.99 vhcurveto
            -100 return
          </CharString>
          <CharString index="59">
            53.99 return
          </CharString>
          <CharString index="60">
            hstemhm
            113 callgsubr
            216 -201 -52 callsubr
            197.01 -52 callsubr
            -200.00002 -52 callsubr
            return
          </CharString>
          <CharString index="61">
            67.01 return
          </CharString>
          <CharString index="62">
            223 -1 callsubr
            return
          </CharString>
          <CharString index="63">
            -63 -57 -74 -74 63 -57.02 return
          </CharString>
          <CharString index="64">
            66.99 return
          </CharString>
          <CharString index="65">
            123.99 return
          </CharString>
          <CharString index="66">
            -159 -62 93 233 hvcurveto
            43 vlineto
            226 152 callsubr
            100 143 158 56 13 callgsubr
            -95 3 vhcurveto
            -99 callsubr
            hlineto
            247 -23 -175 133 callsubr
            -331 hhcurveto
            -319 -210 -218.99 -360 hvcurveto
            -42 vlineto
            return
          </CharString>
          <CharString index="67">
            -59 -45 69 callgsubr
            -52.99 -53 45 16 callgsubr
            59 hvcurveto
            endchar
          </CharString>
          <CharString index="68">
            827.99 hmoveto
            325 762.98 hlineto
            277.01 -176.99 161 -306.01 vhcurveto
            -524.99 -252 500.99 hlineto
            122.02 -76 callsubr
            -58 -112.99 hvcurveto
            return
          </CharString>
          <CharString index="69">
            120 callgsubr
            -335.01 hlineto
            279 -313 rlineto
            return
          </CharString>
          <CharString index="70">
            -59.99 return
          </CharString>
          <CharString index="71">
            18 callsubr
            vstem
            599.98 hmoveto
            365.02 12.98 216 184.02 337 vvcurveto
            666.99 -1019 -252 693.99 -420.99 vlineto
            -183 -93 -91 -163 -7 vhcurveto
            return
          </CharString>
          <CharString index="72">
            328.99 return
          </CharString>
          <CharString index="73">
            hhcurveto
            273 147 237.99 315 hvcurveto
            20.99 vlineto
            329.02 -147 218.99 -275 vhcurveto
            110 -569 rmoveto
            -166 -46.99 -134.99 -140 72 callsubr
            return
          </CharString>
          <CharString index="74">
            34 50 -46 callsubr
            60 3 callgsubr
            -30 -48 -28 84 callgsubr
            -63 -71 -60 vhcurveto
            -286 -255 rlineto
            return
          </CharString>
          <CharString index="75">
            82 30 54 57 82 vvcurveto
            114 callsubr
            -132 79.01 -190 -159 -144 -76 -151 vhcurveto
            214 hlineto
            35 44 19 51 76 85 callgsubr
            16 callgsubr
            -47 callgsubr
            -51 -34.02 return
          </CharString>
          <CharString index="76">
            54 -43 -95 callsubr
            return
          </CharString>
          <CharString index="77">
            -29 -48 callsubr
            -16 64 135 vvcurveto
            return
          </CharString>
          <CharString index="78">
            159.99 return
          </CharString>
          <CharString index="79">
            -99 callsubr
            vstem
            return
          </CharString>
          <CharString index="80">
            177.99 return
          </CharString>
          <CharString index="81">
            130.99 return
          </CharString>
          <CharString index="82">
            rmoveto
            -286 639 rlineto
            -352.99 hlineto
            473.99 -931 rlineto
            -524.98 70 callsubr
            524.98 vlineto
            473.99 931 rlineto
            -351.99 hlineto
            endchar
          </CharString>
          <CharString index="83">
            688.99 -24 rmoveto
            316 210 209 19 callgsubr
            hvcurveto
            329.02 vlineto
            244 -128 146 -216 -78 -100 -28.02 -40.98 32 callgsubr
            vhcurveto
            return
          </CharString>
          <CharString index="84">
            -176 36 callgsubr
            return
          </CharString>
          <CharString index="85">
            322.99 -1 265.02 -29 callsubr
            394 vvcurveto
            675 -1072 -252 vlineto
            return
          </CharString>
          <CharString index="86">
            -61 callgsubr
            82 callgsubr
            return
          </CharString>
          <CharString index="87">
            -197 -313 rlineto
            253 hlineto
            return
          </CharString>
          <CharString index="88">
            78.01 return
          </CharString>
          <CharString index="89">
            -43.99 return
          </CharString>
          <CharString index="90">
            71.99 return
          </CharString>
          <CharString index="91">
            -72 callgsubr
            561.99 hmoveto
            325 773 hlineto
            268.98 -176 159 -296 vhcurveto
            -382 -252 357.99 hlineto
            111 25 callgsubr
            return
          </CharString>
          <CharString index="92">
            -64 callgsubr
            -311.99 -693 vlineto
            -428.02 693 rlineto
            -313 -69 callgsubr
            313 692.98 hlineto
            428.02 -692.98 rlineto
            endchar
          </CharString>
          <CharString index="93">
            58 callgsubr
            107 callsubr
            hlineto
            -46 callgsubr
            return
          </CharString>
          <CharString index="94">
            132.02 hhcurveto
            11 175 -36 hlineto
            -237 -233 -112 return
          </CharString>
          <CharString index="95">
            -73 callsubr
            hstem
            return
          </CharString>
          <CharString index="96">
            121 -96 callgsubr
            return
          </CharString>
          <CharString index="97">
            -45.02 return
          </CharString>
          <CharString index="98">
            78.99 return
          </CharString>
          <CharString index="99">
            -89.99 return
          </CharString>
          <CharString index="100">
            176.99 return
          </CharString>
          <CharString index="101">
            -66 callgsubr
            -324 -922.99 vlineto
            -551 922.99 rlineto
            -325 -79 callsubr
            325 921.99 hlineto
            551 -921.99 rlineto
            endchar
          </CharString>
          <CharString index="102">
            -145.02 88 -168 vhcurveto
            -98 -292 rmoveto
            65 37 54 -82 callgsubr
            64 35 -29 return
          </CharString>
          <CharString index="103">
            -70 callgsubr
            89 callgsubr
            1064 return
          </CharString>
          <CharString index="104">
            -60 callgsubr
            56.99998 -102 callgsubr
            142 callgsubr
            hintmask 00000000
            hintmask 11111000
            return
          </CharString>
          <CharString index="105">
            51 callgsubr
            683.01 -69 callsubr
            vstem
            1409.99 return
          </CharString>
          <CharString index="106">
            -20 -59 callgsubr
            1174.02998 -99 callgsubr
            return
          </CharString>
          <CharString index="107">
            156 106 callgsubr
            return
          </CharString>
          <CharString index="108">
            -26.01 return
          </CharString>
          <CharString index="109">
            -20.99 return
          </CharString>
          <CharString index="110">
            293.01 hlineto
            83 callgsubr
            -1 -185 -29 callsubr
            -268 hhcurveto
            -335.02 -166.99 -238 -311 hvcurveto
            -24.99 vlineto
            return
          </CharString>
          <CharString index="111">
            -82 -53 callgsubr
            82 hvcurveto
            return
          </CharString>
          <CharString index="112">
            93 192.99 hvcurveto
            94 vlineto
            65 31 69 53 95.99 hhcurveto
            123 80 -98 -151 -143 1 callgsubr
            156 callsubr
            -117 hvcurveto
            endchar
          </CharString>
          <CharString index="113">
            hstem
            66 callgsubr
            18 callsubr
            183 callsubr
            -72 callgsubr
            return
          </CharString>
          <CharString index="114">
            -308 29 callsubr
            rlineto
            -16 241 vlineto
            return
          </CharString>
          <CharString index="115">
            161.99 -79 callgsubr
            return
          </CharString>
          <CharString index="116">
            -99 callgsubr
            hstemhm
            return
          </CharString>
          <CharString index="117">
            -85 callsubr
            -58 return
          </CharString>
          <CharString index="118">
            -23 callsubr
            -37.99 -31 return
          </CharString>
          <CharString index="119">
            -73.99 return
          </CharString>
          <CharString index="120">
            125.99 return
          </CharString>
          <CharString index="121">
            -2.99 return
          </CharString>
          <CharString index="122">
            0.99 return
          </CharString>
          <CharString index="123">
            -140.99 return
          </CharString>
          <CharString index="124">
            -25.99 return
          </CharString>
          <CharString index="125">
            325.02 return
          </CharString>
          <CharString index="126">
            14 callsubr
            -5 53 vhcurveto
            -1297 312 1532.99 vlineto
            10 -141 -245.99 14.01 -124.01 hhcurveto
            endchar
          </CharString>
          <CharString index="127">
            72 -299.99 rlineto
            298.99 hlineto
            -80 399.99 rlineto
            -13 63 -7 85 callsubr
            63 vvcurveto
            607 -582 -252 262 vlineto
            return
          </CharString>
          <CharString index="128">
            -36 callgsubr
            456 25 callsubr
            -48 callsubr
            -41 callgsubr
            190.99998 145 callgsubr
            694.99 return
          </CharString>
          <CharString index="129">
            35 callgsubr
            endchar
          </CharString>
          <CharString index="130">
            vlineto
            -108.01 -38 84 callgsubr
            11 callgsubr
            110 callsubr
            108.01 vhcurveto
            return
          </CharString>
          <CharString index="131">
            669.98 75 callsubr
            return
          </CharString>
          <CharString index="132">
            -75 callgsubr
            hstem
            return
          </CharString>
          <CharString index="133">
            182.99 return
          </CharString>
          <CharString index="134">
            83.99 return
          </CharString>
          <CharString index="135">
            31.99 return
          </CharString>
          <CharString index="136">
            -276.99 return
          </CharString>
          <CharString index="137">
            -328.99 return
          </CharString>
          <CharString index="138">
            2.99 return
          </CharString>
          <CharString index="139">
            920.99 -343 rmoveto
            59 -62 callsubr
            -59 121 callsubr
            return
          </CharString>
          <CharString index="140">
            24 callgsubr
            78.01001 312.99 173 callsubr
            return
          </CharString>
          <CharString index="141">
            -29.98 127 118.01 112 callgsubr
            106 hhcurveto
            return
          </CharString>
          <CharString index="142">
            315 25.01001 -89 callgsubr
            32.99998 315 return
          </CharString>
          <CharString index="143">
            rmoveto
            -105 -70 131 callsubr
            -94 -93 70 71 callgsubr
            105 104 70 -46 callsubr
            93 94 -70 111 callsubr
            -104 hvcurveto
            return
          </CharString>
          <CharString index="144">
            67 callsubr
            -128.99 164 callgsubr
            114 callgsubr
            rlineto
            -82 callgsubr
            36 30 45 vhcurveto
            return
          </CharString>
          <CharString index="145">
            -29 callsubr
            hhcurveto
            213 98 139 139 return
          </CharString>
          <CharString index="146">
            26 callgsubr
            81 197 callgsubr
            -81 94 callsubr
            hvcurveto
            return
          </CharString>
          <CharString index="147">
            1233.98 rmoveto
            82 197 callgsubr
            -82 -81 -44 callsubr
            81 hvcurveto
            return
          </CharString>
          <CharString index="148">
            -66 callsubr
            140 174 -26.99 135 hhcurveto
            return
          </CharString>
          <CharString index="149">
            17 callgsubr
            84 callsubr
            return
          </CharString>
          <CharString index="150">
            262 52 callgsubr
            return
          </CharString>
          <CharString index="151">
            185.02 181.99 129 return
          </CharString>
          <CharString index="152">
            0 43 1372.01999 -99 callgsubr
            return
          </CharString>
          <CharString index="153">
            rlineto
            12 83 callsubr
            3 callgsubr
            return
          </CharString>
          <CharString index="154">
            -69 callgsubr
            rlineto
            return
          </CharString>
          <CharString index="155">
            -130 -94 -93 -110 -111 94 -9 callgsubr
            130 return
          </CharString>
          <CharString index="156">
            82 -21 callsubr
            -82 return
          </CharString>
          <CharString index="157">
            rmoveto
            -36 callgsubr
            vlineto
            216 -130 105 -184 -183 -128 -105 -216 vhcurveto
            130 callgsubr
            vlineto
            return
          </CharString>
          <CharString index="158">
            -20 251 -231 230.99 618.98999 252 hstemhm
            196 callsubr
            return
          </CharString>
          <CharString index="159">
            81 -61 callgsubr
            return
          </CharString>
          <CharString index="160">
            vlineto
            -488 -850 rmoveto
            -141 182 callsubr
            133 165.99 hvcurveto
            112 callsubr
            vlineto
            return
          </CharString>
          <CharString index="161">
            -105 -69 -71 -94 -93 69 -70.98 105 105 69 146 callgsubr
            94 -69 71 -105 hvcurveto
            endchar
          </CharString>
          <CharString index="162">
            hstemhm
            -26 callsubr
            361 -315 417.99 return
          </CharString>
          <CharString index="163">
            143 callgsubr
            -48 callsubr
            -43 return
          </CharString>
          <CharString index="164">
            86 callsubr
            -116.02 hvcurveto
            return
          </CharString>
          <CharString index="165">
            39.02 53 52.99 return
          </CharString>
          <CharString index="166">
            81 callsubr
            hvcurveto
            return
          </CharString>
          <CharString index="167">
            rmoveto
            -82 callgsubr
            vlineto
            return
          </CharString>
          <CharString index="168">
            -64 callgsubr
            rlineto
            return
          </CharString>
          <CharString index="169">
            -595 0 43 1209.98 -58 callgsubr
            183 callgsubr
            -97 callgsubr
            vstem
            return
          </CharString>
          <CharString index="170">
            -104 -70 -71 -94 -93 70 -70.98 104 105 70 146 callgsubr
            94 -70 71 -105 hvcurveto
            return
          </CharString>
          <CharString index="171">
            -9 callsubr
            328 599 -35 callsubr
            return
          </CharString>
          <CharString index="172">
            -59 -45 -39 -54 -52 45 -40 59 hvcurveto
            endchar
          </CharString>
          <CharString index="173">
            -76.99 return
          </CharString>
          <CharString index="174">
            -94.99 return
          </CharString>
          <CharString index="175">
            -53.99 return
          </CharString>
          <CharString index="176">
            -72.01 return
          </CharString>
          <CharString index="177">
            329.01 return
          </CharString>
          <CharString index="178">
            141.99 return
          </CharString>
          <CharString index="179">
            -90.01 return
          </CharString>
          <CharString index="180">
            27.01 116.99 return
          </CharString>
          <CharString index="181">
            rlineto
            -87 callgsubr
            return
          </CharString>
          <CharString index="182">
            1101.99 rmoveto
            return
          </CharString>
          <CharString index="183">
            -18 262 -249 43 -38 -86 callsubr
            hstemhm
            15 callgsubr
            317 return
          </CharString>
          <CharString index="184">
            rmoveto
            120 -642.99 -173 418 vlineto
            -328 -616 rlineto
            225 hlineto
            endchar
          </CharString>
          <CharString index="185">
            -67 callgsubr
            hstem
            return
          </CharString>
          <CharString index="186">
            0 -87 callgsubr
            695.98999 252 return
          </CharString>
          <CharString index="187">
            262 hstem
            18 callgsubr
            -96 callgsubr
            return
          </CharString>
          <CharString index="188">
            -49 callgsubr
            81 return
          </CharString>
          <CharString index="189">
            -235.99 return
          </CharString>
          <CharString index="190">
            15.01 return
          </CharString>
          <CharString index="191">
            246.99 return
          </CharString>
          <CharString index="192">
            67.99 return
          </CharString>
          <CharString index="193">
            -58.99 return
          </CharString>
          <CharString index="194">
            157 callgsubr
            95 -34 callgsubr
            111 110 -95 93 -128.99 return
          </CharString>
          <CharString index="195">
            1525.99 rmoveto
            -81 -53 callgsubr
            81 return
          </CharString>
          <CharString index="196">
            173.99 122 callsubr
            return
          </CharString>
          <CharString index="197">
            94 hlineto
            202 -46 callsubr
            -103.02 -204.99 hvcurveto
            endchar
          </CharString>
          <CharString index="198">
            25 callgsubr
            endchar
          </CharString>
          <CharString index="199">
            307 31 callgsubr
            rmoveto
            59 45 -95 callsubr
            54 53 -45 40 -59 hvcurveto
            return
          </CharString>
          <CharString index="200">
            hstemhm
            56.99 -102 callgsubr
            -272.99 292.98 return
          </CharString>
          <CharString index="201">
            -82 -44 callsubr
            82 return
          </CharString>
          <CharString index="202">
            47 -77 callgsubr
            126 hhcurveto
            return
          </CharString>
          <CharString index="203">
            0 -59 callgsubr
            return
          </CharString>
          <CharString index="204">
            207.99 return
          </CharString>
          <CharString index="205">
            24.99 return
          </CharString>
          <CharString index="206">
            -78.99 return
          </CharString>
          <CharString index="207">
            -129 99 callgsubr
            144 callsubr
            -10.02 rlineto
            61 return
          </CharString>
          <CharString index="208">
            0 43 811.99 227 203.98999 83 callgsubr
            return
          </CharString>
          <CharString index="209">
            -74 callgsubr
            hstemhm
            return
          </CharString>
          <CharString index="210">
            10 callsubr
            -10 callsubr
            return
          </CharString>
          <CharString index="211">
            hstem
            321.98 213 vstem
            535 return
          </CharString>
          <CharString index="212">
            hvcurveto
            502.99 hmoveto
            return
          </CharString>
          <CharString index="213">
            249.99 return
          </CharString>
          <CharString index="214">
            12.99 return
          </CharString>
          <CharString index="215">
            289.01 return
          </CharString>
          <CharString index="216">
            -142.99 return
          </CharString>
          <CharString index="217">
            30.99 return
          </CharString>
          <CharString index="218">
            65.99 return
          </CharString>
          <CharString index="219">
            21.02 return
          </CharString>
          <CharString index="220">
            117.99 return
          </CharString>
          <CharString index="221">
            147.99 return
          </CharString>
          <CharString index="222">
            rmoveto
            104 70 71 93 93 -70 71 -104 -104 -70 -71 -93 -93 70 -71 104 hvcurveto
            return
          </CharString>
          <CharString index="223">
            153.01001 -44 callgsubr
            190 hstemhm
            return
          </CharString>
          <CharString index="224">
            rmoveto
            -180 -131.99 return
          </CharString>
          <CharString index="225">
            82 -61 callgsubr
            return
          </CharString>
          <CharString index="226">
            -47 callgsubr
            -58 return
          </CharString>
          <CharString index="227">
            137 callsubr
            hvcurveto
            return
          </CharString>
          <CharString index="228">
            80 callgsubr
            45 -40 59 hvcurveto
            return
          </CharString>
          <CharString index="229">
            hstem
            406.99 175 callsubr
            705.99 return
          </CharString>
          <CharString index="230">
            178 rcurveline
            -290 -208 hlineto
            -100 -42 -123 -63 -87 vhcurveto
            endchar
          </CharString>
          <CharString index="231">
            -42 callgsubr
            vlineto
            86 57 47 101 return
          </CharString>
          <CharString index="232">
            -371.99 -75 callgsubr
            return
          </CharString>
          <CharString index="233">
            350.01 -99 callsubr
            return
          </CharString>
          <CharString index="234">
            -20.01 return
          </CharString>
          <CharString index="235">
            112.99 return
          </CharString>
          <CharString index="236">
            104.98 return
          </CharString>
          <CharString index="237">
            205.99 return
          </CharString>
          <CharString index="238">
            -65.99 return
          </CharString>
          <CharString index="239">
            64.99 return
          </CharString>
          <CharString index="240">
            183.99 return
          </CharString>
          <CharString index="241">
            312.02 return
          </CharString>
          <CharString index="242">
            -88 callgsubr
            271.99998 265.01 hstem
            return
          </CharString>
          <CharString index="243">
            -215.02 128 110 callgsubr
            301 -71 vhcurveto
            return
          </CharString>
          <CharString index="244">
            81 -21 callsubr
            -81 return
          </CharString>
          <CharString index="245">
            161 -37 50 -40 -69 vvcurveto
            -43 -32 -63 -117.99 return
          </CharString>
          <CharString index="246">
            134 callgsubr
            -329.01 hvcurveto
            -21 vlineto
            -315 return
          </CharString>
          <CharString index="247">
            165 hvcurveto
            21 vlineto
            173 50 140 131 callgsubr
            return
          </CharString>
          <CharString index="248">
            74 161 callsubr
            -74 return
          </CharString>
          <CharString index="249">
            -189 164.99 -96.99 217 -46 return
          </CharString>
          <CharString index="250">
            -52 callsubr
            hintmask 11110010
            return
          </CharString>
          <CharString index="251">
            hvcurveto
            -7 callsubr
            return
          </CharString>
          <CharString index="252">
            60 -83 callsubr
            return
          </CharString>
          <CharString index="253">
            -79 callgsubr
            vstem
            return
          </CharString>
          <CharString index="254">
            -177.99 return
          </CharString>
          <CharString index="255">
            51.02 return
          </CharString>
          <CharString index="256">
            61.99 return
          </CharString>
          <CharString index="257">
            199.99 return
          </CharString>
          <CharString index="258">
            85.02 return
          </CharString>
          <CharString index="259">
            73.01 return
          </CharString>
          <CharString index="260">
            -8.99 return
          </CharString>
          <CharString index="261">
            107.99 return
          </CharString>
          <CharString index="262">
            125.01 return
          </CharString>
          <CharString index="263">
            -105.99 return
          </CharString>
          <CharString index="264">
            101.01 return
          </CharString>
          <CharString index="265">
            -227 hlineto
            -152.99 -60 -84.99 return
          </CharString>
          <CharString index="266">
            -197 -313.02 74 callsubr
            hlineto
            return
          </CharString>
          <CharString index="267">
            -1131 1177.98 201.99 hstem
            return
          </CharString>
          <CharString index="268">
            73 callgsubr
            -82 -63 -57 return
          </CharString>
          <CharString index="269">
            -460 507.98 220.99 hstem
            return
          </CharString>
          <CharString index="270">
            583.99 rmoveto
            255 return
          </CharString>
          <CharString index="271">
            61 -83 callsubr
            40 53 return
          </CharString>
          <CharString index="272">
            158.99 return
          </CharString>
          <CharString index="273">
            105.98 return
          </CharString>
          <CharString index="274">
            89.01 return
          </CharString>
          <CharString index="275">
            13.99 return
          </CharString>
          <CharString index="276">
            -311.01 return
          </CharString>
          <CharString index="277">
            -153.99 return
          </CharString>
          <CharString index="278">
            -124.99 return
          </CharString>
          <CharString index="279">
            rmoveto
            711 1138 -149.02 78 return
          </CharString>
          <CharString index="280">
            hstem
            71 callsubr
            -69 callsubr
            vstem
            return
          </CharString>
          <CharString index="281">
            -28 callgsubr
            rlineto
            return
          </CharString>
          <CharString index="282">
            -41 callgsubr
            vstem
            return
          </CharString>
          <CharString index="283">
            vhcurveto
            hintmask 11101100
            -186 221 rmoveto
            56 25 -23 return
          </CharString>
          <CharString index="284">
            hstemhm
            -87 callsubr
            return
          </CharString>
          <CharString index="285">
            -312 hlineto
            -120 -2 -76 -50 -132 hhcurveto
            return
          </CharString>
          <CharString index="286">
            1530 rmoveto
            -176 11 rlineto
            -61 -38 -31 return
          </CharString>
          <CharString index="287">
            rmoveto
            145 callsubr
            return
          </CharString>
          <CharString index="288">
            148.99 return
          </CharString>
          <CharString index="289">
            -46.98 return
          </CharString>
          <CharString index="290">
            480.99 return
          </CharString>
          <CharString index="291">
            348.99 return
          </CharString>
          <CharString index="292">
            167.02 return
          </CharString>
          <CharString index="293">
            324.01 return
          </CharString>
          <CharString index="294">
            -104.02 return
          </CharString>
          <CharString index="295">
            1193.98 return
          </CharString>
          <CharString index="296">
            1285.98 return
          </CharString>
          <CharString index="297">
            150.02 return
          </CharString>
          <CharString index="298">
            58.99 return
          </CharString>
          <CharString index="299">
            -399.01 return
          </CharString>
          <CharString index="300">
            14.99 return
          </CharString>
          <CharString index="301">
            240.99 return
          </CharString>
          <CharString index="302">
            20 0 43 806.98 252 return
          </CharString>
          <CharString index="303">
            129 callsubr
            -97 callgsubr
            return
          </CharString>
          <CharString index="304" raw="1">
            c4391fa5 1d390b  
          </CharString>
          <CharString index="305">
            -56 callgsubr
            -102 callgsubr
            return
          </CharString>
          <CharString index="306">
            168 158.98 vvcurveto
            endchar
          </CharString>
          <CharString index="307">
            1536 rmoveto
            return
          </CharString>
        <CharString name=".notdef">
          220 -555 185.99 90.01999 13 callsubr
          14 callgsubr
          149 callsubr
          88.98 127.01 -34 callgsubr
          161.99 167 callsubr
          65 151.01001 60 90.98999 168 callgsubr
          89.02 100 88.98999 152 callsubr
          91.99 96.99 92.02 70 88.98999 100 89.01001 181 hstemhm
          -78 callgsubr
          200 89.01001 -34 callgsubr
          -9 callgsubr
          269.98 -88.98 -34 callgsubr
          167 callsubr
          97 callsubr
          hintmask 111111111111111101100000
          1106.98 2146 rmoveto
          -856 -2701 856 hlineto
          -207.99 2520 rmoveto
          -89 -178 -100 178 -9 callgsubr
          -448 -34 callgsubr
          -27 callsubr
          100 -175 89 vlineto
          267.02 -348 rmoveto
          -189 178 -92 -448 281 vlineto
          -27 callsubr
          -92.02 rmoveto
          -9 callgsubr
          -97 -34 callgsubr
          hlineto
          151 callgsubr
          -165 rmoveto
          -9 callgsubr
          -178 -189 -270 89 -27 callsubr
          100 147 callsubr
          -34 callgsubr
          vlineto
          448 -162 rmoveto
          -269.98 -448 90.99 358.99 179 vlineto
          167 callsubr
          -329.99 rmoveto
          -305.01 -448 305.01 89 -216 269.98 127 -9 callgsubr
          -61.99 -92.02 151 vlineto
          151 callgsubr
          -467.01 rmoveto
          -304.98 -448 304.98 vlineto
          hintmask 111100000000001010100000
          358.99 -9 callgsubr
          rmoveto
          -269.98 -127.02 269.98 hlineto
          167 callsubr
          -150.98 rmoveto
          72 callsubr
          -86 vlineto
          -189 -125.99 rlineto
          275.01 72 callsubr
          -448 14 callgsubr
          hlineto
          189 13 callsubr
          rlineto
          -189 14 callgsubr
          hlineto
          endchar
        </CharString>
        <CharString name=".null">
          -1131 endchar
        </CharString>
        <CharString name="A">
          -82 callsubr
          hstem
          74 callgsubr
          vstem
          1038.99 hmoveto
          -106 callsubr
        </CharString>
        <CharString name="A.smcp">
          -20 callgsubr
          hstem
          -7 1217 vstem
          896 hmoveto
          -104 callsubr
        </CharString>
        <CharString name="AE">
          795 0 72 callgsubr
          76 262 24.98999 72 callgsubr
          328.01 72 callgsubr
          hstemhm
          925.98 304 -275 300.5 hintmask 00000000
          hintmask 10110100
          1262.98 255 rmoveto
          -15 362.99 rlineto
          469 255 hlineto
          hintmask 10111000
          -479.99 hlineto
          -14.01 328 rlineto
          575 255 -585 hlineto
          -245 hlineto
          -197 hlineto
          -762 47 callgsubr
          363 hlineto
          hintmask 11110100
          -29 callsubr
          331 rlineto
          416.01 hlineto
          168 callsubr
          -331 rlineto
          165 hlineto
          732 255 hlineto
          -1200.01 338 rmoveto
          hintmask 11111000
          256 528 22 -528 rlineto
          endchar
        </CharString>
        <CharString name="AE.smcp">
          490 0 106 callsubr
          -43 246 26.98999 106 callsubr
          185.01 106 callsubr
          hstemhm
          697.48 303.49 -281 299.52 hintmask 10111000
          1024 250 rmoveto
          -9.02 229.99 rlineto
          441 250 -450.99 hlineto
          -8 185 rlineto
          519 250 -528 hlineto
          -260.02 hlineto
          -215 hlineto
          -566.99 47 callsubr
          338 hlineto
          hintmask 01110100
          93 -89 callgsubr
          rlineto
          338.99 hlineto
          hintmask 10110100
          8 -206.99 rlineto
          127 hlineto
          711 250 hlineto
          hintmask 01111000
          -1075 203 rmoveto
          202 450.99 17 -450.99 rlineto
          endchar
        </CharString>
        <CharString name="Aacute">
          -82 callsubr
          77 -58 callgsubr
          74 callgsubr
          vstem
          1071.98 1845.99 rmoveto
          109 callgsubr
          hlineto
          -196 -313 74 callsubr
          hlineto
          245 -1532.99 rmoveto
          -106 callsubr
        </CharString>
        <CharString name="Aacute.smcp">
          -20 callgsubr
          819 -58 callgsubr
          -7 1217 vstem
          979.99 1565.98 rmoveto
          -334 hlineto
          -20 callsubr
          194 -1252.99 rmoveto
          -104 callsubr
        </CharString>
        <CharString name="Acircumflex">
          -82 callsubr
          97.01001 -81 callgsubr
          74 callgsubr
          hintmask 00000000
          hintmask 11101100
          694.99 1690.99 rmoveto
          17 callgsubr
          247 107 callsubr
          hlineto
          105 callgsubr
          hintmask 11110100
          -308 -277 rlineto
          -16 241 vlineto
          500 -1553 rmoveto
          -106 callsubr
        </CharString>
        <CharString name="Acircumflex.smcp">
          -20 callgsubr
          839.01001 -81 callgsubr
          -7 1217 hintmask 00000000
          hintmask 11011000
          602.99 1410.99 -14 callsubr
          hintmask 11101000
          7 callsubr
          449 -1273 rmoveto
          -104 callsubr
        </CharString>
        <CharString name="Adieresis">
          -82 callsubr
          88 262 hstem
          298.98 -59 callsubr
          213.02 -59 callsubr
          vstem
          442.98 1543.99 rmoveto
          118 callsubr
          74 -63 57 -82 -81 -63 -57 -74 59 callsubr
          26 callgsubr
          173 callgsubr
          161 callgsubr
          93 -1543.99 rmoveto
          -106 callsubr
        </CharString>
        <CharString name="Adieresis.smcp">
          -20 callgsubr
          830 262 hstem
          -89 callgsubr
          -59 callsubr
          213.01 -59 callsubr
          vstem
          350.99 1263.98 -92 callsubr
          42 -1263.98 rmoveto
          -104 callsubr
        </CharString>
        <CharString name="Agrave">
          -82 callsubr
          77 -58 callgsubr
          74 callgsubr
          vstem
          869.99 1532.99 rmoveto
          -199 313 rlineto
          -333.99 hlineto
          279 -313 rlineto
          423 -1532.99 rmoveto
          -106 callsubr
        </CharString>
        <CharString name="Agrave.smcp">
          -20 callgsubr
          819 -58 callgsubr
          -7 1217 vstem
          777.99 1252.99 -38 callsubr
          372.02 -1252.99 rmoveto
          -104 callsubr
        </CharString>
        <CharString name="Aring">
          -82 callsubr
          74.01001 49 callgsubr
          472.98 118 211.99 118 vstem
          697 1530 rmoveto
          129 30 callgsubr
          -34 callgsubr
          111 110 67 callsubr
          93 -129 48 callsubr
          hvcurveto
          307 vmoveto
          65 40.98 -49 -58 -58 -40.98 -47 -65 118 callgsubr
          hvcurveto
          342 -1836.99 rmoveto
          -106 callsubr
        </CharString>
        <CharString name="Aring.smcp">
          -20 callgsubr
          816.01001 49 callgsubr
          380.98 118 212 118 vstem
          605 1250 rmoveto
          87 callsubr
          48 callsubr
          hvcurveto
          307 vmoveto
          132 callsubr
          41 -49 -58 -58 -41 -47 -64.99 118 callgsubr
          hvcurveto
          291 -1556.99 rmoveto
          -104 callsubr
        </CharString>
        <CharString name="Atilde">
          -82 callsubr
          109.01001 -44 callgsubr
          189.99 hstemhm
          -79 callgsubr
          -7 callsubr
          410.01 175.98 hintmask 11101110
          571.99 1648.99 rmoveto
          hintmask 11110110
          102.99 47 -77 callgsubr
          126.01 hhcurveto
          134 30 callgsubr
          -42 callsubr
          147 hvcurveto
          -175.99 36 callgsubr
          -38 -31 -45 vhcurveto
          hintmask 11101110
          -98 -72 27 callsubr
          -106 hhcurveto
          -133 37 callsubr
          467 -1648.99 rmoveto
          -106 callsubr
        </CharString>
        <CharString name="Atilde.smcp">
          -20 callgsubr
          851.01001 -44 callgsubr
          106 -106 190 hstemhm
          221.98 177 410 176 hintmask 00000000
          hintmask 11010110
          479.99 1368.99 rmoveto
          hintmask 11100110
          103 47 -77 callgsubr
          126.01 hhcurveto
          134 30 callgsubr
          -42 callsubr
          147 hvcurveto
          -13 callgsubr
          -98 -72 84 -106 hhcurveto
          hintmask 11001110
          81 callgsubr
          177 -10 rlineto
          hintmask 11010110
          -82 callgsubr
          36 30 113 callgsubr
          vhcurveto
          hintmask 11100110
          416.02 -1368.99 rmoveto
          -104 callsubr
        </CharString>
        <CharString name="B">
          183 96 callsubr
          362.98999 224 346 262 hstemhm
          -11 callsubr
          422.98999 -69 callsubr
          -291.98 -69 callsubr
          hintmask 11110100
          988 745.98 rmoveto
          hintmask 11111000
          145 57 -76 callsubr
          121.02 -26 callsubr
          vvcurveto
          272 -208 129 -348 vhcurveto
          -515.99 -79 callsubr
          -42 callsubr
          hlineto
          444 hlineto
          hintmask 11110100
          347 189 145 285 194 callgsubr
          71 callgsubr
          137 -169.99 -83 callsubr
          hvcurveto
          -351.01 448 rmoveto
          hintmask 11111000
          161 71 -52 171 callsubr
          -111 -71 -58 -161 hvcurveto
          -191 345.99 hlineto
          hintmask 11110100
          243 -932.99 rmoveto
          -243 362.99 256 hlineto
          142.99 56.02 32 callgsubr
          -116 -98 67 callgsubr
          -76 -149 hvcurveto
          endchar
        </CharString>
        <CharString name="B.smcp">
          8 0 -78 callgsubr
          224.01001 -89 callgsubr
          231.01 -94 callsubr
          177 callsubr
          70 callsubr
          -99 callsubr
          -286.00002 -99 callsubr
          hintmask 11111000
          872 587.98 rmoveto
          128 46.02 45 104 104 vvcurveto
          216.99 -183 106 -313 vhcurveto
          -458 -69 callgsubr
          166 callgsubr
          hlineto
          384 hlineto
          hintmask 11110100
          314 162 167 callgsubr
          233 hvcurveto
          hintmask 11111000
          99 -52 118 -146.99 98 callgsubr
          vhcurveto
          -295.02 18 callsubr
          rmoveto
          105 148 callsubr
          -32 -87 -75 -51.02 -37 -112.99 hvcurveto
          -165 231.02 hlineto
          hintmask 11110100
          191 -662.02 rmoveto
          -191 224 204 hlineto
          110 41 -43 32 callgsubr
          -52 -18 callsubr
          -56.02 -120.02 hvcurveto
          endchar
        </CharString>
        <CharString name="C">
          211 -20 265.99 964.98999 266.01 hstem
          -9 callsubr
          -35 callsubr
          vstem
          1280.98 490.99 rmoveto
          -324 hlineto
          136 callgsubr
          -64 callsubr
          -436 228 -270 379.99 359.02 15 callgsubr
          97 callsubr
          303 17 vhcurveto
          endchar
        </CharString>
        <CharString name="C.smcp">
          26 -81 callsubr
          -78 callgsubr
          695.00002 76 callgsubr
          198 callsubr
          vstem
          1111.98 404.99 rmoveto
          178 callsubr
          -41 callsubr
          -360 196 -216.98 338 310 150 callsubr
          164.98 256 12 vhcurveto
          endchar
        </CharString>
        <CharString name="C.ss06">
          248 51 callgsubr
          vstem
          1315.98 490.99 rmoveto
          -322.99 hlineto
          -157 127 callsubr
          -81 -94 -175 hhcurveto
          -203 -111 172.02 292.98 hvcurveto
          47 vlineto
          295.02 126.02 168 187.99 192 64 -92.02 -166.99 112 callsubr
          vhcurveto
          325 hlineto
          318.01 -30 -200 203 -372 hhcurveto
          -368.99 184 callgsubr
          -278.02 -448.99 hvcurveto
          -10 callsubr
          vlineto
          -448.98 257 29 callsubr
          381.99 360 210 26 callsubr
          -35 callsubr
          29 vhcurveto
          endchar
        </CharString>
        <CharString name="Ccedilla">
          211 -469.99 70 callgsubr
          278 43 -41 43 1177.98 266.01 hstemhm
          -9 callsubr
          -35 callsubr
          83 callgsubr
          266.99 hintmask 10111100
          686.98 245.99 rmoveto
          -64 callsubr
          -389.02 180 -256 309 -50.97 vhcurveto
          -27 -127 rlineto
          98 -6 40 112 callgsubr
          -53 vvcurveto
          -56 -42 46 callgsubr
          147 hvcurveto
          hintmask 11011100
          115 -76 45 -74 13 vhcurveto
          6.98 40 290.02 40 173 193.99 193 callsubr
          269 rlinecurve
          -324 hlineto
          hintmask 10111100
          136 callgsubr
          endchar
        </CharString>
        <CharString name="Ccedilla.smcp">
          26 -464.99 70 callgsubr
          278 43 893.99 76 callgsubr
          198 callsubr
          216.01 266.99 vstem
          589.99 128 callgsubr
          rmoveto
          -41 callsubr
          -316.99 152 -205 266 -45.99 vhcurveto
          -26.99 171 callsubr
          rlineto
          98 -6 40 112 callgsubr
          -52.99 vvcurveto
          -56 -42 46 callgsubr
          147 115 -76 45 -74 13 hvcurveto
          7 40 194 callsubr
          36.98 151 154 11 221 rlinecurve
          178 callsubr
          endchar
        </CharString>
        <CharString name="D">
          197 159 callgsubr
          121 324.99 473 329.99 vstem
          578.99 -4 callgsubr
          -133 hlineto
          -325 -79 callsubr
          -40 callgsubr
          932.99 101 callgsubr
        </CharString>
        <CharString name="D.smcp">
          7 0 -78 callgsubr
          662.01001 -32 callgsubr
          363.01 146 callsubr
          497.99 10 callgsubr
          -94 hlineto
          -313 -69 callgsubr
          -49 callsubr
          662.02 90 callsubr
        </CharString>
        <CharString name="D.ss06">
          253 159 callgsubr
          121 -69 callsubr
          534.98999 -72 callgsubr
          577.99 -4 callgsubr
          -133 hlineto
          -323.99 -79 callsubr
          140 hlineto
          318 hlineto
          441 285 304.98 401 hvcurveto
          43 vlineto
          401 -285 305.99 -442 vhcurveto
          402 -750 rmoveto
          -244 -118.99 -200.99 -303 vhcurveto
          -113.01 932.99 113.01 hlineto
          303.98 118 -199 -244 hvcurveto
          endchar
        </CharString>
        <CharString name="E">
          18 0 -65 callgsubr
          hstem
          121 -72 callgsubr
          1110 188 callsubr
          rmoveto
          262 -664 vlineto
          -83 callgsubr
        </CharString>
        <CharString name="E.smcp">
          -78 callsubr
          hstem
          90.99 -19 callgsubr
          961.99 913 rmoveto
          -94 callsubr
          -558 vlineto
          -94 callgsubr
        </CharString>
        <CharString name="Eacute">
          18 0 -65 callgsubr
          78.01001 312.99 52 callgsubr
          vstem
          1015.99 1846.99 rmoveto
          -334.01 hlineto
          -20 callsubr
          372 -340.01 rmoveto
          262 -664 vlineto
          -83 callgsubr
        </CharString>
        <CharString name="Eacute.smcp">
          -78 callsubr
          87.99998 312.99 -67 callsubr
          vstem
          933.99 1565.98 rmoveto
          -334.01 hlineto
          -20 callsubr
          306 -339.99 rmoveto
          -94 callsubr
          -558 vlineto
          -94 callgsubr
        </CharString>
        <CharString name="Ecircumflex">
          18 0 -65 callgsubr
          98 16.01 -16.01 293 hstemhm
          -11 callsubr
          hintmask 00000000
          hintmask 11101100
          639 1692 rmoveto
          157 153 callgsubr
          rlineto
          84 callsubr
          13 hlineto
          -46 callgsubr
          hintmask 11110100
          -308 29 callsubr
          rlineto
          112 callgsubr
          194 callsubr
          vlineto
          627.02 -360 rmoveto
          262 -664 vlineto
          -83 callgsubr
        </CharString>
        <CharString name="Ecircumflex.smcp">
          -78 callsubr
          108.01 -81 callgsubr
          90.99 312.99 hintmask 00000000
          hintmask 11101100
          556.99 1410.99 -14 callsubr
          hintmask 11110100
          7 callsubr
          560.99 -360 rmoveto
          -94 callsubr
          -558 vlineto
          -94 callgsubr
        </CharString>
        <CharString name="Edieresis">
          18 0 -65 callgsubr
          89.01001 262 hstemhm
          -11 callsubr
          -203 56 callgsubr
          hintmask 00000000
          hintmask 11110110
          386.99 1544.99 rmoveto
          82 125 callgsubr
          -82 -81 -63 -57 -51 callsubr
          -74 63 -57 81 hvcurveto
          503 hmoveto
          81 125 callgsubr
          -81 -82 67 callgsubr
          -57 -51 callsubr
          -74 68 callgsubr
          -57 82 hvcurveto
          220 -351.01 rmoveto
          262 -664 vlineto
          hintmask 11101000
          -83 callgsubr
        </CharString>
        <CharString name="Edieresis.smcp">
          -78 callsubr
          98.99998 262 177 callsubr
          185 callgsubr
          -59 callsubr
          213.01 -59 callsubr
          hintmask 00000000
          hintmask 11110110
          304.98 1263.98 -92 callsubr
          -50 callgsubr
          -350.99 rmoveto
          -94 callsubr
          -558 vlineto
          hintmask 11101000
          -94 callgsubr
        </CharString>
        <CharString name="Egrave">
          18 0 -65 callgsubr
          78.01001 312.99 52 callgsubr
          vstem
          814 1533.99 -38 callsubr
          550.02 -340.01 rmoveto
          262 -664 vlineto
          -83 callgsubr
        </CharString>
        <CharString name="Egrave.smcp">
          -78 callsubr
          87.99998 312.99 -67 callsubr
          vstem
          732 1252.99 120 callgsubr
          -335.02 hlineto
          279 -313 rlineto
          484 -339.99 rmoveto
          -94 callsubr
          -558 vlineto
          -94 callgsubr
        </CharString>
        <CharString name="Eth">
          197 96 callsubr
          377 188 367.98999 43 callsubr
          473 329.99 vstem
          578.99 -4 callgsubr
          -133 hlineto
          -325 -629.99 -145 -188 145 -637.99 -40 callgsubr
          377 244 188 -244 367.99 101 callgsubr
        </CharString>
        <CharString name="Eth.smcp">
          7 0 -78 callgsubr
          235.01001 188 239 -32 callgsubr
          363.01 146 callsubr
          497.99 10 callgsubr
          -94 hlineto
          -313 -490.99 -210 -188 210 -485.99 -49 callsubr
          235 191 188 -191 239 90 callsubr
        </CharString>
        <CharString name="Euro">
          50 -19 259.99 270 156.99 123.01 156.99 266.01 -59 callgsubr
          hstem
          72 callgsubr
          -72 callgsubr
          878.98 194 callsubr
          rmoveto
          -173 -117 57 213.02 153 callsubr
          hvcurveto
          324 157 -324 123 324 157 -321 hlineto
          191 19 108 75 176 hhcurveto
          60 66 -13 -19 50 hvcurveto
          40 262 rlineto
          19 -77 1 callgsubr
          12 -79.02 hhcurveto
          -342 -241.99 -181 -345.99 -27.02 hvcurveto
          -169 -157 185 callsubr
          -123 -167.02 -157 185 callsubr
          hlineto
          -352.01 11 243 147 callsubr
          333 hhcurveto
          91 88 11 19 81 hvcurveto
          -40 261 rlineto
          -21.01 -56 -62.02 -10 -65 hhcurveto
          endchar
        </CharString>
        <CharString name="Euro.smcp">
          -98 -81 callsubr
          -94 callsubr
          157 callgsubr
          -27 callsubr
          68.99998 179.01 71 callsubr
          252 hstem
          -41 callgsubr
          -19 callgsubr
          738.98 -7 callgsubr
          rmoveto
          -110 -62 43 86 17 callsubr
          hvcurveto
          341 178 -354 69 354 179.02 -340.01 hlineto
          92 25 61 -56 callsubr
          109 hhcurveto
          -9 callsubr
          52 153 callsubr
          127 callsubr
          154 callgsubr
          hvcurveto
          22 247 rlineto
          24 -80 -60 10 -85 hhcurveto
          -283.01 -184 -148 -245.99 -45 hvcurveto
          -153 -179.02 143 -69 -143 -178 153 hlineto
          -236 42 186.99 -144.97 285 hhcurveto
          27 callgsubr
          63 11 192 callgsubr
          75 hvcurveto
          -22 84 callsubr
          rlineto
          -13.99 -29 callgsubr
          -55 -12 -78.01 hhcurveto
          endchar
        </CharString>
        <CharString name="F">
          -9 0 43 541.99 -59 callgsubr
          347.99998 43 callsubr
          vstem
          1082 188 callsubr
          rmoveto
          262 -636 vlineto
          -325 -79 callsubr
          325 584.99 571 261 -571 348 hlineto
          endchar
        </CharString>
        <CharString name="F.smcp">
          -169 0 43 401.98 251 217.01001 -32 callgsubr
          vstem
          934.99 913 rmoveto
          -94 callsubr
          -531 vlineto
          -313 -69 callgsubr
          313 444.99 484 251 -484 217 hlineto
          endchar
        </CharString>
        <CharString name="G">
          265 -20 -59 callgsubr
          298 128 callgsubr
          442.01999 -59 callgsubr
          hstem
          -34 callgsubr
          70 callsubr
          549.98 -69 callsubr
          vstem
          1291.98 180.98 rmoveto
          593 -582.99 -234.99 258.99 -233 vlineto
          -28 -31 -63 -37 -129 hhcurveto
          -219 -107.99 150 295.02 hvcurveto
          85 vlineto
          296 109 149.02 187 172 70 165 callgsubr
          -145 22 vhcurveto
          -80 callsubr
          hlineto
          288.01 -31 -167 204 -389 hhcurveto
          -365.02 -250 -256 -452.02 hvcurveto
          110 callgsubr
          vlineto
          -452.02 254 -253.99 382 316.99 178 118.98 82 -17 callsubr
          vhcurveto
          endchar
        </CharString>
        <CharString name="G.smcp">
          53 -81 callsubr
          -78 callgsubr
          133 callsubr
          219 292.01001 251.99 175 callgsubr
          -99 callsubr
          429.99998 146 callsubr
          1123.98 139 rmoveto
          499 -526.99 -219.02 212.99 -150 vlineto
          -14.99 -23 68 callsubr
          -19 -88 hhcurveto
          -182 -83 101 216.99 hvcurveto
          60 vlineto
          223 98 94 131 callgsubr
          134.99 55 -49 -112 17 vhcurveto
          299.99 hlineto
          243.02 -23.98 -143 169.99 -350.99 hhcurveto
          -309 -228 -204 -367 hvcurveto
          -58 vlineto
          -366.99 219 -201.99 335.01 268.98 166 87.98 -46 callsubr
          -43 callsubr
          vhcurveto
          endchar
        </CharString>
        <CharString name="G.ss06">
          288 2 callsubr
          260.98 283.00002 128 callgsubr
          457.01 80 callsubr
          591.01 -72 callgsubr
          1318.99 180 rmoveto
          577.99 -563 -234.99 238 -229 vlineto
          -27 -28.02 -73 -27.02 -117 hhcurveto
          -231 -142 188 267 hvcurveto
          57 vlineto
          281.01 132.02 182 150 callsubr
          159 -42 callgsubr
          -85.02 -145 20.01 vhcurveto
          314 hlineto
          288.01 -30 -187 204 -375.99 hhcurveto
          -378 -269 -290.02 -436.98 hvcurveto
          -55 vlineto
          -424 292 -291.98 406 295 180 -18 callgsubr
          82 68.02 vhcurveto
          endchar
        </CharString>
        <CharString name="H">
          313 0 43 569.98 -59 callgsubr
          541.04999 38 callgsubr
          552 -69 callsubr
          vstem
          997.99 -4 callgsubr
          -582 -552 582 -325 -79 callsubr
          325 612.99 552 -612.99 -69 callsubr
          -66 callgsubr
          vlineto
          endchar
        </CharString>
        <CharString name="H.smcp">
          105 0 43 401.98 251 -67 callsubr
          429.99998 311 vstem
          833.99 10 callgsubr
          -468.99 -430 468.99 -313 -69 callgsubr
          313 444.99 430 -444.99 311.01 -64 callgsubr
          vlineto
          endchar
        </CharString>
        <CharString name="I">
          24 callgsubr
          173 callsubr
          465.98 hmoveto
          -66 callgsubr
          -324 -79 callsubr
          vlineto
          endchar
        </CharString>
        <CharString name="I.smcp">
          -595 0 43 hstem
          183 callgsubr
          -97 callgsubr
          vstem
          424 hmoveto
          -39 callgsubr
        </CharString>
        <CharString name="Iacute">
          33 callsubr
          344.99 1846.99 rmoveto
          -20 callsubr
          278 313 rlineto
          -213 -1846.99 rmoveto
          -66 callgsubr
          -324 -79 callsubr
          vlineto
          endchar
        </CharString>
        <CharString name="Iacute.smcp">
          62 callsubr
          19 callgsubr
          1565.98 rmoveto
          -197 -313 7 callgsubr
          313 rlineto
          -221 -1565.98 rmoveto
          -39 callgsubr
        </CharString>
        <CharString name="Icircumflex">
          24 callgsubr
          98 16.01 -16.01 293 hstemhm
          71 callsubr
          -69 callsubr
          hintmask 11101000
          706.99 1566.99 rmoveto
          hintmask 11011000
          -46 callgsubr
          hintmask 11101000
          -309 29 callsubr
          rlineto
          112 callgsubr
          241.99 vlineto
          hintmask 11011000
          156 131 callgsubr
          157 153 callgsubr
          rlineto
          247 hlineto
          -241 -1553.98 rmoveto
          -66 callgsubr
          -324 -79 callsubr
          vlineto
          endchar
        </CharString>
        <CharString name="Icircumflex.smcp">
          -595 0 43 1229.99 -81 callgsubr
          183 callgsubr
          -97 callgsubr
          hintmask 11010000
          672.99 189 callsubr
          rmoveto
          hintmask 10110000
          -46 callgsubr
          hintmask 11010000
          -309 29 callsubr
          rlineto
          -16 241.99 vlineto
          hintmask 10110000
          0 callsubr
          247 hlineto
          -249 -1273 rmoveto
          -39 callgsubr
        </CharString>
        <CharString name="Idieresis">
          24 callgsubr
          89.01001 262 hstemhm
          -94 -59 callsubr
          -53 -69 callsubr
          -58.00002 108 callsubr
          hintmask 00000000
          hintmask 11110100
          -56 callsubr
          1806.99 rmoveto
          -81 -63 -57 -51 callsubr
          -74 63 -57 81 82 63 57 74 74.02 73 callgsubr
          -81.99 67 callgsubr
          -57 -51 callsubr
          -74 68 callgsubr
          -57 81.99 81.02 125 callgsubr
          -81.02 hvcurveto
          hintmask 11101000
          -87 -1806.99 rmoveto
          -66 callgsubr
          -324 -79 callsubr
          vlineto
          endchar
        </CharString>
        <CharString name="Idieresis.smcp">
          -595 0 43 1220.98 262 hstemhm
          -128 -59 callsubr
          -49.01001 -97 callgsubr
          -50.01 108 callsubr
          hintmask 00000000
          hintmask 11101000
          15.99 1525.99 rmoveto
          -80.99 -53 callgsubr
          80.99 49 callsubr
          hvcurveto
          502.99 hmoveto
          -82 -53 callgsubr
          82 81 68 callgsubr
          57 74.02 -17 callgsubr
          67 callgsubr
          57 -81 hvcurveto
          hintmask 11010000
          67 callsubr
          -1525.99 rmoveto
          -39 callgsubr
        </CharString>
        <CharString name="Igrave">
          33 callsubr
          477 1533.99 45 callgsubr
          278.98 -313 rlineto
          243 -1533.99 rmoveto
          -66 callgsubr
          -324 -79 callsubr
          vlineto
          endchar
        </CharString>
        <CharString name="Igrave.smcp">
          62 callsubr
          442.98 1252.99 45 callgsubr
          278.99 -313 rlineto
          235 -1252.99 rmoveto
          -39 callgsubr
        </CharString>
        <CharString name="J">
          17 -1 callsubr
          hstem
          38.99 -96 callgsubr
          340.99998 323.01 vstem
          704.98 -4 callgsubr
          -1002 vlineto
          -133.98 -64.98 -79.02 -106 -107.01 -63 45 151 vhcurveto
          -325 hlineto
          -314 207 109 callsubr
          288.01 279 215 182.98 291 vhcurveto
          1002 vlineto
          endchar
        </CharString>
        <CharString name="J.smcp">
          -139 -81 callsubr
          -78 callgsubr
          -250.98 398.99 hstemhm
          110 callsubr
          -102 callgsubr
          243.01 -102 callgsubr
          hintmask 10010000
          587 10 callgsubr
          -756 vlineto
          -122 -37 -52 -77 vhcurveto
          hintmask 01110000
          -9 callgsubr
          69 callgsubr
          46 102.01 hvcurveto
          -313 hlineto
          hintmask 10110000
          -275 176 -123.98 266 233 194 154.99 269.99 vhcurveto
          756 vlineto
          endchar
        </CharString>
        <CharString name="K">
          174 0 43 1372.01999 38 callgsubr
          vstem
          939.99 hmoveto
          384 hlineto
          -512 808.98 503.99 647 rlineto
          -398.99 hlineto
          -344 -464 -127 -183 rlineto
          647 -325 -79 callsubr
          325 397.99 vlineto
          151 164 rlineto
          endchar
        </CharString>
        <CharString name="K.alt">
          193 0 43 538.98 305 528.04 -84 callsubr
          121 -69 callsubr
          vstem
          959 hmoveto
          385 hlineto
          -473.01 773.98 424 682 rlineto
          -393.01 hlineto
          -320 -569 rlineto
          -137 569 -323.99 -79 callsubr
          -69 callsubr
          581.98 172 hlineto
          endchar
        </CharString>
        <CharString name="K.alt2">
          193 -31 callgsubr
          121 -69 callsubr
          vstem
          1314 hmoveto
          -558 733.98 529 722 rlineto
          -401 hlineto
          -439.01 -635.99 rlineto
          635.99 -323.99 -79 callsubr
          -69 callsubr
          631.99 vlineto
          463 -631.99 rlineto
          endchar
        </CharString>
        <CharString name="K.smcp">
          -3 0 43 -67 callsubr
          vstem
          779.98 hmoveto
          368 hlineto
          -411 642.99 405 521.99 rlineto
          -391.99 hlineto
          -254.02 -340.99 -92 -129 rlineto
          470 -313 -69 callgsubr
          313 296 vlineto
          121 113 callsubr
          rlineto
          endchar
        </CharString>
        <CharString name="L">
          -21 96 callsubr
          1154.02998 38 callgsubr
          vstem
          445.99 261 rmoveto
          1194.99 -325 -79 callsubr
          216 vlineto
          733 261 hlineto
          endchar
        </CharString>
        <CharString name="L.smcp">
          -176 0 -78 callgsubr
          -67 callsubr
          vstem
          403.99 -78 callgsubr
          rmoveto
          914 -313 -69 callgsubr
          199 vlineto
          633 -78 callgsubr
          hlineto
          endchar
        </CharString>
        <CharString name="M">
          664 0 43 1019.99 392.99 -40.96002 9 callsubr
          121 -69 callsubr
          902 -96 callgsubr
          hintmask 10111000
          1671.99 -4 callgsubr
          -426 hlineto
          -349.98 -1025.99 -350 1025.99 rlineto
          -151 hlineto
          -274 -79 callsubr
          -69 callsubr
          357.99 hlineto
          hintmask 11011000
          -47 callgsubr
          705 373.99 -1062.99 rlineto
          218 hlineto
          373.99 1062.99 -47 callgsubr
          -705 rlineto
          -357.99 325 vlineto
          endchar
        </CharString>
        <CharString name="M.smcp">
          414 0 43 hstem
          90.99 -79 callgsubr
          734.01 146 callsubr
          1452.99 10 callgsubr
          -414 hlineto
          -268 -756 -268 756 rlineto
          171 callgsubr
          hlineto
          -263 -69 callgsubr
          314 197 hlineto
          -33 628 297 -825 rlineto
          203.99 hlineto
          298 829.99 -47 callgsubr
          -633 rlineto
          -197 314 vlineto
          endchar
        </CharString>
        <CharString name="N">
          312 0 43 1372.01999 38 callgsubr
          550.98999 -69 callsubr
          vstem
          1320.98 hmoveto
          -6 callsubr
        </CharString>
        <CharString name="N.smcp">
          104 0 43 -67 callsubr
          428.01999 -28 callsubr
          1143.99 hmoveto
          -15 callsubr
        </CharString>
        <CharString name="Ntilde">
          312 45 callsubr
          109.01001 -44 callgsubr
          189.99 hstemhm
          -11 callsubr
          -102.01001 177 409.99 176 -109.99 -69 callsubr
          hintmask 00000000
          hintmask 11101010
          1106.98 1835.99 rmoveto
          -13 callgsubr
          hintmask 11010101
          -98 -72 27 callsubr
          -106 hhcurveto
          -133 -95 -128.99 -142 hvcurveto
          177 114 callgsubr
          rlineto
          -82 callgsubr
          36 30 45 vhcurveto
          hintmask 11101001
          103 47 -77 callgsubr
          126.02 hhcurveto
          hintmask 11101010
          134 30 callgsubr
          -42 callsubr
          147 hvcurveto
          hintmask 11101001
          214 -1835.99 rmoveto
          -6 callsubr
        </CharString>
        <CharString name="Ntilde.smcp">
          104 0 43 1241.99 -44 callgsubr
          106 -106 190 177 callsubr
          -161.99 -7 callsubr
          409.99998 176 -172.98 -99 callsubr
          hintmask 00000000
          hintmask 11001010
          1004.99 1555.99 rmoveto
          11 callsubr
          -10 callsubr
          vhcurveto
          -98 12 callgsubr
          84 -106 hhcurveto
          hintmask 10010101
          -133 -95 -129 164 callgsubr
          -10 rlineto
          hintmask 10100101
          -82 callgsubr
          36 30 2 callgsubr
          vhcurveto
          hintmask 11001001
          199 callgsubr
          hintmask 11001010
          134 95 -42 callsubr
          147 hvcurveto
          hintmask 11001001
          139 -1555.99 rmoveto
          -15 callsubr
        </CharString>
        <CharString name="O">
          -60 callgsubr
          hstem
          64 callsubr
          vstem
          1334.99 697 -105 callsubr
        </CharString>
        <CharString name="O.smcp">
          -88 callsubr
          hstem
          -56 callgsubr
          -79 callgsubr
          474.99998 146 callsubr
          1158.98 560.99 -107 callsubr
        </CharString>
        <CharString name="O.ss06">
          358 -2 callsubr
          706.99 rmoveto
          42 vlineto
          407 -273 321 -394 -394 -271.01 -321 -407 vhcurveto
          -42 vlineto
          -408 273 -319.98 394 394.02 270.99 319.98 408 vhcurveto
          -324 -26 callgsubr
          rmoveto
          -18 callsubr
          vlineto
          -254 -123 -213.02 -218 -219 -123 213.02 254 vhcurveto
          -26 callgsubr
          vlineto
          253 121 211 219 15 callgsubr
          155 callsubr
          -211 -253 vhcurveto
          endchar
        </CharString>
        <CharString name="OE">
          858 -20 252 -232 -65 callgsubr
          -232 252 hstemhm
          30 callgsubr
          -97 callgsubr
          500.98 186 callsubr
          hintmask 01110110
          1896 188 callsubr
          rmoveto
          262 -664 vlineto
          -232 hlineto
          hintmask 10101110
          11 -89 -100 9.01 -101 hhcurveto
          -366 -249 -243 -353.02 hvcurveto
          -303.98 vlineto
          -353.02 251 185 callgsubr
          366 vhcurveto
          hintmask 01110110
          101 98 148 callgsubr
          9.99 89 hvcurveto
          -42 callsubr
          hlineto
          772.02 261 -664 360 564 -87 callgsubr
          -564 320 hlineto
          hintmask 10101110
          -825 -617.98 rmoveto
          305.99 vlineto
          229 116 128 callsubr
          186.99 187 callgsubr
          111 callsubr
          -5 -8.01 63 vhcurveto
          -966.99 vlineto
          -8 -62 -66 -4 -68 hhcurveto
          -187 -117.99 115 229 hvcurveto
          endchar
        </CharString>
        <CharString name="Oacute">
          -3 callsubr
          747.99 1845.99 rmoveto
          -197 -313 7 callgsubr
          313 74 callsubr
          -1148.99 -90 callsubr
        </CharString>
        <CharString name="Oacute.smcp">
          -88 callsubr
          -17 callsubr
          -58 callgsubr
          -56 callgsubr
          -79 callgsubr
          474.99998 146 callsubr
          646.98 1565.98 rmoveto
          -20 callsubr
          278 313 rlineto
          -27 callsubr
          -1005 -107 callsubr
        </CharString>
        <CharString name="Ocircumflex">
          -60 callgsubr
          77.01 -81 callgsubr
          -9 callsubr
          328 599 328.99 hintmask 11101100
          1108.99 1565.98 138 callgsubr
          -277 rlineto
          -16 194 callsubr
          vlineto
          hintmask 11011100
          0 callsubr
          247 hlineto
          226 -856 -105 callsubr
        </CharString>
        <CharString name="Ocircumflex.smcp">
          -88 callsubr
          92.00002 -81 callgsubr
          -56 callgsubr
          -79 callgsubr
          474.99998 -79 callgsubr
          hintmask 11101100
          1007.98 189 callsubr
          138 callgsubr
          29 callsubr
          rlineto
          -16 241 vlineto
          hintmask 11011100
          156 138 42 callsubr
          hlineto
          151 -712.01 -107 callsubr
        </CharString>
        <CharString name="Odieresis">
          -60 callgsubr
          67.99998 262 hstemhm
          -9 callsubr
          328 -98.01001 108 callsubr
          212.99 -59 callsubr
          -93.98 -35 callsubr
          hintmask 00000000
          hintmask 11101100
          453 1805.99 rmoveto
          -81 67 callgsubr
          -57 -74 -51 callsubr
          68 callgsubr
          -57 81 118 callsubr
          141 callsubr
          -49 callgsubr
          82 163 callgsubr
          hintmask 11110010
          379 -1108.99 -105 callsubr
        </CharString>
        <CharString name="Odieresis.smcp">
          -88 callsubr
          82.99 262 hstemhm
          -56 callgsubr
          -79 callgsubr
          -161.99 56 callgsubr
          -154.01 -79 callgsubr
          hintmask 00000000
          hintmask 11101100
          351.99 88 callsubr
          49 callsubr
          hvcurveto
          26 callgsubr
          -82 67 callgsubr
          -57 12 callsubr
          -51 callsubr
          68 callgsubr
          -57 82 120 callsubr
          hintmask 11110010
          303.98 -965 -107 callsubr
        </CharString>
        <CharString name="Ograve">
          -3 callsubr
          879.98 1532.99 45 callgsubr
          279 -313 rlineto
          709 -835.99 -90 callsubr
        </CharString>
        <CharString name="Ograve.smcp">
          -88 callsubr
          -17 callsubr
          -58 callgsubr
          -56 callgsubr
          -79 callgsubr
          474.99998 146 callsubr
          779 1252.99 -38 callsubr
          634 -692 -107 callsubr
        </CharString>
        <CharString name="Oslash">
          279 -20 265.99 963 266.99 hstem
          87.98 70 callsubr
          597.99 70 callsubr
          vstem
          1153.99 1298.98 rmoveto
          127 219.02 rlineto
          -196 hlineto
          -67.99 -115.02 rlineto
          48 -87 -103.02 25 -111.99 hhcurveto
          -370.01 -257 -273 -445.01 hvcurveto
          -85 callsubr
          vlineto
          -237.02 152 callsubr
          -187.99 28 callgsubr
          -124 vhcurveto
          99 callgsubr
          185 callgsubr
          rlineto
          197 hlineto
          83 142.99 rlineto
          -44.99 84.99 99 -23 109 hhcurveto
          369.01 258.01 271.99 445.01 hvcurveto
          -82 callgsubr
          vlineto
          232 -71 185.02 -119.01 -42 callsubr
          vhcurveto
          -737 -601.99 rmoveto
          63 vlineto
          293 104 156 194 63 53 -17 -33.02 -26 callgsubr
          vhcurveto
          -419 -718.99 rlineto
          17 callsubr
          69 -13 86 102.02 vvcurveto
          598 hmoveto
          -290 -107 -161 -191 -59 -51 83 callsubr
          29 -42 vhcurveto
          416.01 712.99 rlineto
          22 -66 12 -81 -95.99 vvcurveto
          endchar
        </CharString>
        <CharString name="Oslash.smcp">
          -88 callsubr
          -163.99998 200.99 hstemhm
          -56 callgsubr
          -79 callgsubr
          474.99998 -79 callgsubr
          hintmask 00000000
          hintmask 10111000
          1011 1017 rmoveto
          146.99 200.99 rlineto
          -170.99 hlineto
          hintmask 11011000
          -83 -114 rlineto
          50 -77 callgsubr
          -101 27.01 -112 hhcurveto
          -325 -226 -222 -356 hvcurveto
          -42 vlineto
          -174 54.99 -142 93 -99 vhcurveto
          -145.99 -200.99 rlineto
          133 callgsubr
          hlineto
          83 114.99 rlineto
          -50 27 callsubr
          101 -25.98 112 hhcurveto
          321 228.99 220.97 356 hvcurveto
          42 vlineto
          hintmask 10111000
          173 -51 callgsubr
          141 -93 100 vhcurveto
          hintmask 11011000
          -641 -456.01 rmoveto
          43 vlineto
          209 81 -18 callgsubr
          156 54 47 -16 -30 98 callgsubr
          vhcurveto
          -354 -484 rlineto
          -13.99 2 callgsubr
          -7 -48 callsubr
          60 vvcurveto
          474.99 hmoveto
          -205 -88 -123.99 -25 callgsubr
          -55 -46 16 29 -36.99 vhcurveto
          353 483 rlineto
          168 callsubr
          -44 7 -52 -37 callsubr
          vvcurveto
          endchar
        </CharString>
        <CharString name="Otilde">
          -60 callgsubr
          167 callsubr
          -44 callgsubr
          189.99 hstemhm
          -9 callsubr
          328 -83 -7 callsubr
          410.01 176 -81 -35 callsubr
          hintmask 00000000
          hintmask 11101010
          1087 1835.99 rmoveto
          -23 callsubr
          -38 -31 -45 vhcurveto
          hintmask 11010101
          -98 -72 27 callsubr
          156 callsubr
          hhcurveto
          186 callgsubr
          37 callsubr
          hintmask 11101001
          103.01 47 -77 callgsubr
          13 callsubr
          hhcurveto
          hintmask 11101010
          134 95.01 -42 callsubr
          147 hvcurveto
          hintmask 11101001
          247.99 -1139 -105 callsubr
        </CharString>
        <CharString name="Otilde.smcp">
          -88 callsubr
          104.00002 -44 callgsubr
          106 -106 190 hstemhm
          -56 callgsubr
          -79 callgsubr
          -146.99 177 409.98999 176 -141 -79 callgsubr
          hintmask 0000000000000000
          hintmask 1110010100000000
          985.99 1555.99 rmoveto
          -13 callgsubr
          -98.02 12 callgsubr
          84 -106 hhcurveto
          hintmask 1100101010000000
          81 callgsubr
          177 -10 rlineto
          hintmask 1101001010000000
          -82 callgsubr
          36 30 45 vhcurveto
          hintmask 1110010010000000
          199 callgsubr
          hintmask 1110010100000000
          134 95 -42 callsubr
          147 hvcurveto
          hintmask 1110010010000000
          173 -995 -107 callsubr
        </CharString>
        <CharString name="P">
          196 0 43 456.99 262 431.98999 43 callsubr
          477 327.98 vstem
          695.99 -4 callgsubr
          -575 -79 callsubr
          325 500 250 hlineto
          345.99 209 184 281.99 283.01 -209 -89 callgsubr
          -345.99 hvcurveto
          -693.99 vmoveto
          -250 431.99 250 hlineto
          -29 callsubr
          -46 callsubr
          -109 -121 -117 71 callgsubr
          -85 -159.99 hvcurveto
          endchar
        </CharString>
        <CharString name="P.smcp">
          19 0 43 327.99 -94 callsubr
          290.01 -32 callgsubr
          367.01 311 vstem
          593.98 10 callgsubr
          -502.99 -69 callgsubr
          313 371 190 hlineto
          302.02 186 157 225 238 -186 174 -302.02 hvcurveto
          -542 vmoveto
          -190 290.02 190 hlineto
          121.02 56 -75.02 -87 32 callgsubr
          -56 -55 -121.02 hvcurveto
          endchar
        </CharString>
        <CharString name="Q">
          -60 callgsubr
          hstem
          -9 callsubr
          -35 callsubr
          598.01 -35 callsubr
          vstem
          1334.99 697 60 callsubr
          445.01 -259.99 273 -369.01 -370 -257 -273 -445.01 vhcurveto
          -85 callsubr
          vlineto
          -445.01 258.99 -271.99 370.01 35 34 2 5 28 callsubr
          vhcurveto
          310 -251 204 179.02 82 callsubr
          187.98 rlineto
          -50 callgsubr
          121 94 205 268 vvcurveto
          -927 hmoveto
          63 vlineto
          293 104.02 156 193.99 191 109.02 -156 -293 vhcurveto
          -63 vlineto
          -290 -107 -161 -191 -194 -106 161 290 vhcurveto
          endchar
        </CharString>
        <CharString name="Q.smcp">
          -88 callsubr
          hstem
          -76 callsubr
          -97 callgsubr
          476.99 -28 callsubr
          1160.99 560.99 rmoveto
          42 vlineto
          356 -231 222 -320 -325 -225 -222 -356 vhcurveto
          -42 vlineto
          -356 227 -220.97 -69 callsubr
          25.01 24 1 31 callsubr
          24 vhcurveto
          268 -206.99 193 165.99 -191 145 rlineto
          157 callgsubr
          99 -19 callsubr
          162 208 vvcurveto
          -789 hmoveto
          43 vlineto
          209 81.99 -18 callgsubr
          156.02 150 89 -118.99 -209 vhcurveto
          -43 vlineto
          -205 -88 -123.99 -150.02 -156 110 callgsubr
          -42 callsubr
          205 vhcurveto
          endchar
        </CharString>
        <CharString name="Q.ss06">
          359 -2 callsubr
          716.98 rmoveto
          112 callsubr
          vlineto
          432.99 -273 306.02 -394 -394 -271.01 -306.02 -432.99 vhcurveto
          -21.02 vlineto
          -432.99 273 -304.98 394 57.02 54.99 6 107 callsubr
          52 vhcurveto
          285 -251 203 179.02 -232 200.99 rlineto
          153 129.99 92 209 251 vvcurveto
          -1007 hmoveto
          23 vlineto
          280 121 195 219 15 callgsubr
          155 callsubr
          -195 -280 vhcurveto
          -23 vlineto
          -278 -123 -199 -218 -219 -123 199 278 vhcurveto
          endchar
        </CharString>
        <CharString name="R">
          190 0 43 476.98 262 412 43 callsubr
          450.98999 -72 callgsubr
          965 605 rmoveto
          157 -17 callsubr
          99.99 119.01 220 vvcurveto
          287 -209 152.99 109 callgsubr
          vhcurveto
          -557 -79 callsubr
          325 519.99 217 hlineto
          150 callgsubr
          -519.99 rlineto
          348.02 193 callsubr
          hlineto
          -828 1178.99 rmoveto
          232 hlineto
          146 29 callgsubr
          99 callsubr
          -128 -126 32 callgsubr
          -79.01 -146 hvcurveto
          -232 hlineto
          endchar
        </CharString>
        <CharString name="R.alt">
          201 0 29.98 526.01001 262 375.98999 262 hstemhm
          121 -69 callsubr
          437 -69 callsubr
          -309.00002 186 callsubr
          hintmask 11111000
          1205.99 -87 callgsubr
          rmoveto
          92 vlineto
          168 -85 callsubr
          130 -189 54 vhcurveto
          hintmask 11110100
          163 149 callsubr
          102.01 95.01 -36 callgsubr
          vvcurveto
          273 -178.02 157 109 callgsubr
          vhcurveto
          -587 -79 callsubr
          -69 callsubr
          555.99 229 hlineto
          hintmask 11111000
          144 64 -74 -139 hvcurveto
          -88 vlineto
          -41 5 -165 61 97 callgsubr
          vhcurveto
          332.99 29.98 hlineto
          -61.99 48 -13 129 46 vvcurveto
          -761 565 rmoveto
          375.99 242 vlineto
          hintmask 11110100
          146 64 -82 -115 -115 -74 -64 -146 hvcurveto
          endchar
        </CharString>
        <CharString name="R.smcp">
          24 0 43 347.98 252 270.01001 -32 callgsubr
          351.01 -28 callsubr
          851.99 477 rmoveto
          129 -76 callsubr
          86 86 194 vvcurveto
          229 -188 -18 callgsubr
          -287.99 vhcurveto
          -500 -69 callgsubr
          313 390.98 160 hlineto
          209 -390.98 rlineto
          336 12.98 hlineto
          -705 900.02 rmoveto
          187 hlineto
          104 60 -46.02 -87 -91 -55 -46 -109 hvcurveto
          -187 hlineto
          endchar
        </CharString>
        <CharString name="S">
          139 -20 256 982.99 257 hstemhm
          -43 callsubr
          -96 callgsubr
          -281.00002 186 callsubr
          438.99 -96 callgsubr
          hintmask 11011000
          601.99 604 rmoveto
          228 -51 callsubr
          -26 callgsubr
          -50 -94 vvcurveto
          -83 -64 -29 callgsubr
          -144 vhcurveto
          hintmask 11101000
          -169 -105 59 173 hvcurveto
          -325 hlineto
          -339.99 305 -148 293.99 323.01 209.99 148 259.99 243 130 callgsubr
          137.02 -314 98 vhcurveto
          hintmask 11011000
          -177 54.99 -100.99 55 -34 callgsubr
          vvcurveto
          188 callgsubr
          -17 callsubr
          69 146 150 154 callgsubr
          -80 -114.02 vhcurveto
          324 hlineto
          83 callgsubr
          -217.99 180 -321 -319 -230 -160 -247.99 -259.01 230 -120 261 -84.99 vhcurveto
          endchar
        </CharString>
        <CharString name="S.smcp">
          -23 -81 callsubr
          226.98 742.00002 228 93 callsubr
          333.01 -97 callgsubr
          -297.99998 293.99 hintmask 11010100
          525.99 462.99 rmoveto
          138 callsubr
          vhcurveto
          hintmask 11100100
          -152 -65 48 118 hvcurveto
          -313 hlineto
          -283.02 259.99 -109.97 251 280 26 callsubr
          123.98 218.99 223 109 callsubr
          -48 callgsubr
          -299.01 64 vhcurveto
          hintmask 11011000
          54 callgsubr
          111 64 -66.01 -71 vhcurveto
          134 callsubr
          hlineto
          237.02 -204 128 -284.02 -258.99 -191 -141 -207.99 vhcurveto
          hintmask 11010100
          136 callsubr
          endchar
        </CharString>
        <CharString name="T">
          148 0 43 1150.98 262 hstem
          472.98 -72 callgsubr
          1239 -4 callgsubr
          -441.02 hlineto
          -758.99 -262 434 -1193.98 325 188 callsubr
          441.02 hlineto
          endchar
        </CharString>
        <CharString name="T.smcp">
          -15 0 43 869.99 76 callgsubr
          395.98 146 callsubr
          1083.99 10 callgsubr
          -374 hlineto
          -679 156 callgsubr
          365 -913 314 913 374 hlineto
          endchar
        </CharString>
        <CharString name="Thorn">
          125 0 43 237.98 252 411 251 220.04 -84 callsubr
          28 callgsubr
          -102 callgsubr
          446.01 -19 callgsubr
          648.99 1194.99 rmoveto
          -211 261 -313 -79 callsubr
          313 280.98 211 hlineto
          355 193 191 266.02 267 -193 190 -355 hvcurveto
          -662 vmoveto
          -211 410.99 211 hlineto
          169 66 -99 -109 -106 -66 -97 -169 hvcurveto
          endchar
        </CharString>
        <CharString name="Thorn.smcp">
          -81 0 43 173.99 251 290.98999 252 -67 callsubr
          294.99998 311 vstem
          520.99 1011 rmoveto
          -117 144 callgsubr
          -69 callgsubr
          313 216.99 117 hlineto
          303 186 164 236 227 -186 185 callsubr
          -303 hvcurveto
          -543.01 vmoveto
          -117 291 117 hlineto
          121 57 -29 callgsubr
          -77 -83 -57 -64 -121 hvcurveto
          endchar
        </CharString>
        <CharString name="U">
          -45 callsubr
          6 callsubr
          1241.99 1455.98 -103 callgsubr
        </CharString>
        <CharString name="U.smcp">
          42 -81 callsubr
          -78 callgsubr
          hstem
          -34 callgsubr
          -102 callgsubr
          366.99998 -80 callsubr
          vstem
          1082 1164.98 -100 callsubr
        </CharString>
        <CharString name="Uacute">
          -45 callsubr
          77 312.99 6 callsubr
          715 1845.99 rmoveto
          -197.02 -313 rlineto
          253 hlineto
          278 313 rlineto
          193 -390 -103 callgsubr
        </CharString>
        <CharString name="Uacute.smcp">
          4 callgsubr
          622.98 1565.98 rmoveto
          -20 callsubr
          278 313 rlineto
          155 callsubr
          -401 -100 callsubr
        </CharString>
        <CharString name="Ucircumflex">
          -45 callsubr
          97.01001 -81 callgsubr
          66 callgsubr
          18 callsubr
          183 callsubr
          -96 callgsubr
          hintmask 11101100
          1076 1565.98 rmoveto
          hintmask 11011100
          105 callgsubr
          hintmask 11101100
          -309 -277 rlineto
          -16 242 vlineto
          hintmask 11011100
          0 callsubr
          247 hlineto
          165.99 -97.02 -103 callgsubr
        </CharString>
        <CharString name="Ucircumflex.smcp">
          42 -81 callsubr
          -78 callgsubr
          1038.00002 -81 callgsubr
          -34 callgsubr
          -102 callgsubr
          366.99998 -80 callsubr
          hintmask 11011000
          983.98 189 callsubr
          rmoveto
          hintmask 10111000
          -46 callgsubr
          hintmask 11011000
          7 callsubr
          hintmask 10111000
          156 138 42 callsubr
          hlineto
          98.02 -108.02 -100 callsubr
        </CharString>
        <CharString name="Udieresis">
          -45 callsubr
          88 262 hstemhm
          66 callgsubr
          18 callsubr
          -160.02 -59 callsubr
          213.02 -59 callsubr
          -149.99 -96 callgsubr
          hintmask 11110010
          419.98 1805.99 rmoveto
          -81 -63 -57 -74 59 callsubr
          hintmask 11101010
          118 callsubr
          hvcurveto
          hintmask 11110010
          74 -63 57 -82 vhcurveto
          26 callgsubr
          hintmask 11110100
          161 callgsubr
          hintmask 11110010
          163 callgsubr
          319 -350 -103 callgsubr
        </CharString>
        <CharString name="Udieresis.smcp">
          42 -81 callsubr
          -78 callgsubr
          1028.99 262 hstemhm
          -34 callgsubr
          -102 callgsubr
          -217.99 -59 callsubr
          213.01 -59 callsubr
          -206.00002 -80 callsubr
          hintmask 11100100
          327.99 88 callsubr
          hvcurveto
          hintmask 11010100
          118 callsubr
          hvcurveto
          hintmask 11100100
          82 callgsubr
          -82 vhcurveto
          26 callgsubr
          hintmask 11101000
          4 callsubr
          hintmask 11100100
          120 callsubr
          251 -361 -100 callsubr
        </CharString>
        <CharString name="Ugrave">
          -45 callsubr
          77 312.99 6 callsubr
          846.99 1532.99 120 callgsubr
          -335 hlineto
          279 -313 rlineto
          648.99 -77 -103 callgsubr
        </CharString>
        <CharString name="Ugrave.smcp">
          4 callgsubr
          755 1252.99 -38 callsubr
          581.02 -88 -100 callsubr
        </CharString>
        <CharString name="V">
          215 -31 callgsubr
          1.99 1342.99 vstem
          983 -4 callgsubr
          169 callsubr
          -1071.98 -310 1071.98 rlineto
          -360 hlineto
          497.01 47 callgsubr
          195 callgsubr
          hlineto
          237 hlineto
          500 61 callgsubr
          endchar
        </CharString>
        <CharString name="V.smcp">
          36 0 43 -43 284.99 hstemhm
          -7 1179.99 hintmask 10100000
          845.99 10 callgsubr
          hintmask 01100000
          -257 -844 -7 -35.99 -7.99 39 -253.99 840.99 rlineto
          -327 hlineto
          416.99 47 callsubr
          119.01 hlineto
          226 hlineto
          418 61 callsubr
          endchar
        </CharString>
        <CharString name="W">
          655 -31 callgsubr
          29 1726.99 vstem
          1434.99 -4 callgsubr
          -183 -992.99 -222 992.99 rlineto
          156 callsubr
          hlineto
          -169 hlineto
          -221 -992.99 -183 992.99 rlineto
          -321.99 hlineto
          316.99 47 callgsubr
          148 hlineto
          26 callsubr
          hlineto
          215 920.99 217 -920.99 rlineto
          28 callgsubr
          hlineto
          206 hlineto
          316.01 61 callgsubr
          endchar
        </CharString>
        <CharString name="W.smcp">
          397 0 43 hstem
          26.99 1467 vstem
          1195.99 10 callgsubr
          -134 -747.99 -165 747.99 rlineto
          -121 hlineto
          -153 hlineto
          -162 -750 -134 750 rlineto
          -299.99 hlineto
          263.98 47 callsubr
          148 hlineto
          166 hlineto
          -50 callgsubr
          680 159 -680 rlineto
          131.99 hlineto
          182 hlineto
          262 61 callsubr
          endchar
        </CharString>
        <CharString name="X">
          174 -31 callgsubr
          13.98 1277 vstem
          652.98 966.98 rmoveto
          -257 489 rlineto
          -371 hlineto
          416.01 -722 -427.01 -733.98 rlineto
          193 callgsubr
          hlineto
          263.98 497.99 263 -497.99 rlineto
          193 callgsubr
          hlineto
          -426 733.98 415.01 722 rlineto
          -371.02 hlineto
          endchar
        </CharString>
        <CharString name="X.smcp">
          -4 0 43 hstem
          -4.99 1130.98 vstem
          546.97 802.98 rmoveto
          -186 362 rlineto
          -355.99 hlineto
          349.98 -577.99 -359.97 -587 rlineto
          358.99 hlineto
          197 368.99 130 callsubr
          -368.99 rlineto
          369.01 hlineto
          -381.01 587 349 577.99 rlineto
          -358 hlineto
          endchar
        </CharString>
        <CharString name="Y">
          145 -31 callgsubr
          472.98 70 callsubr
          vstem
          637.99 816.99 -25 callsubr
        </CharString>
        <CharString name="Y.smcp">
          -21 0 43 hstem
          394.99 -19 callgsubr
          1116 10 callgsubr
          -337 hlineto
          -224 -476 134 callgsubr
          476 rlineto
          -335.99 hlineto
          399.99 -746 rlineto
          -418.98 313 407 vlineto
          endchar
        </CharString>
        <CharString name="Yacute">
          145 45 callsubr
          77 -58 callgsubr
          472.98 70 callsubr
          vstem
          681.98 1845.99 rmoveto
          -20 callsubr
          278 313 rlineto
          -378 -1029 -25 callsubr
        </CharString>
        <CharString name="Yacute.smcp">
          -21 0 43 1209.98 -58 callgsubr
          394.99 -19 callgsubr
          918 1565.98 rmoveto
          -334.01 hlineto
          -20 callsubr
          476 -88 rmoveto
          -337 hlineto
          -224 -476 134 callgsubr
          476 rlineto
          -335.99 hlineto
          399.99 -746 rlineto
          -418.98 313 407 vlineto
          endchar
        </CharString>
        <CharString name="Z">
          114 159 callgsubr
          69 1121.99 vstem
          183 callsubr
          261 rmoveto
          698 1018 rlineto
          -7 callsubr
          -108.01 vlineto
          -1001.99 -262 704.99 hlineto
          -704 -1012 rlineto
          -181.99 80.02 vlineto
          1041 261 hlineto
          endchar
        </CharString>
        <CharString name="Z.smcp">
          -54 0 -78 callgsubr
          662.01001 76 callgsubr
          -56 callsubr
          986.99 vstem
          470 -78 callgsubr
          rmoveto
          561.99 760.02 rlineto
          -50 callgsubr
          -99 vlineto
          -883 156 callgsubr
          575 hlineto
          -570 -754.01 rlineto
          -158.99 70 vlineto
          912 -78 callgsubr
          hlineto
          endchar
        </CharString>
        <CharString name="a">
          -75 callsubr
          -73 callgsubr
          284.01001 -102 callgsubr
          hintmask 01110110
          990.99 269.98 -104 callgsubr
          hintmask 10111010
          -98 callsubr
          hintmask 01110110
          -60 callsubr
          -30 callsubr
          hintmask 10111010
          -103 callsubr
        </CharString>
        <CharString name="aacute">
          -75 callsubr
          121 -80 callsubr
          -73 callgsubr
          284.01001 -102 callgsubr
          hintmask 01111011
          919.98 200 callsubr
          -333.99 hlineto
          159 callsubr
          349 -953 -104 callgsubr
          hintmask 10111101
          -98 callsubr
          hintmask 01111011
          -60 callsubr
          -30 callsubr
          hintmask 10111101
          -103 callsubr
        </CharString>
        <CharString name="acircumflex">
          -75 callsubr
          141.01001 15.99 -15.99 293 -73 callgsubr
          284.01001 -102 callgsubr
          hintmask 0000000000000000
          hintmask 0111010010000000
          542.99 1380.99 rmoveto
          17 callgsubr
          247 13 hlineto
          105 callgsubr
          hintmask 0111100110000000
          95 callgsubr
          604 -973 -104 callgsubr
          hintmask 1011101010000000
          -98 callsubr
          hintmask 0111100010000000
          -60 callsubr
          hintmask 0111100110000000
          -30 callsubr
          hintmask 1011101010000000
          -103 callsubr
        </CharString>
        <CharString name="acute">
          -446 1223.98 -97 callgsubr
          hstem
          95.99 532 vstem
          292.98 200 callsubr
          -197 -312.02 rlineto
          254 hlineto
          132 callgsubr
          134 callsubr
          rlineto
          endchar
        </CharString>
        <CharString name="acutecomb">
          -1131 1223.98 -97 callgsubr
          hstem
          -685.99 531 vstem
          -490 200 callsubr
          -196 -312.02 7 callgsubr
          134 callsubr
          rlineto
          endchar
        </CharString>
        <CharString name="adieresis">
          -75 callsubr
          132 262 -73 callgsubr
          -247 108 callsubr
          213.00002 -59 callsubr
          -259.99 -102 callgsubr
          hintmask 0111100101000000
          290.98 1233.98 rmoveto
          82 116 callgsubr
          -82 -81 -44 callsubr
          81 hvcurveto
          hintmask 0111100110000000
          39 callsubr
          hintmask 0111101001000000
          197 -964 -104 callgsubr
          hintmask 1011110001000000
          -98 callsubr
          hintmask 0111100101000000
          -60 callsubr
          hintmask 0111101001000000
          -30 callsubr
          hintmask 1011110001000000
          -103 callsubr
        </CharString>
        <CharString name="ae">
          599 -20 225.99 -225.99 252 97 callsubr
          130 callsubr
          -192.00002 199 197 252 hstemhm
          64 -99 callsubr
          -276.01001 -97 callgsubr
          309.99 307.02 346.98 305 hintmask 0110110110000000
          1681 611.98 rmoveto
          301.02 -172 188.99 -284 vhcurveto
          -134 1 -107.01 -37 -82 -64 rrcurveto
          66.01 66 callsubr
          -111 34 -135 hhcurveto
          hintmask 0101101110000000
          -291 -188 109 callsubr
          -198 hvcurveto
          134 callsubr
          -19 rlineto
          60 59 47.99 105 93.98 52 -51 callgsubr
          -92 vhcurveto
          -50.02 -151 vlineto
          hintmask 0101110110000000
          -332.99 -174 -119.99 -210 -209 145 -134 266 185 127 66 75 154 callgsubr
          hvcurveto
          -89.01 88 129 -51.99 167 hhcurveto
          -27 callsubr
          154 -82 callgsubr
          60 75 hvcurveto
          -79.02 201 rlineto
          16 callgsubr
          -80 -75 84 callgsubr
          -135.99 hhcurveto
          hintmask 0110110110000000
          -162.02 -76 86 122 -14.99 hvcurveto
          654 hlineto
          -305.01 130 callsubr
          rmoveto
          -346.99 hlineto
          121.02 16 54.99 82.99 155 callsubr
          hhcurveto
          101 -56 callsubr
          -68 -110 hvcurveto
          hintmask 1001110110000000
          -1000 -352.99 rmoveto
          70 68 132 callsubr
          129 vhcurveto
          149 -178 hlineto
          -39 -47 -75 -31 131 callsubr
          hhcurveto
          -108.02 -66 callsubr
          44 69 hvcurveto
          endchar
        </CharString>
        <CharString name="agrave">
          -75 callsubr
          121 -80 callsubr
          -73 callgsubr
          284.01001 -102 callgsubr
          hintmask 01111011
          717.99 158 callgsubr
          109 callgsubr
          hlineto
          279 174 callsubr
          527 -953 -104 callgsubr
          hintmask 10111101
          -98 callsubr
          hintmask 01111011
          -60 callsubr
          -30 callsubr
          hintmask 10111101
          -103 callsubr
        </CharString>
        <CharString name="alpha">
          22 2 callsubr
          254.98 -253.98999 -86 callgsubr
          hstemhm
          85 callsubr
          -102 callgsubr
          342.99998 -99 callsubr
          hintmask 00000000
          hintmask 10111000
          1124.99 236.99 rmoveto
          -2 -4 -5 -1 -10.02 hhcurveto
          -45 -25 32 98 hvcurveto
          718 -272 vlineto
          -22 -128 rlineto
          92 -58 -81 -56 callgsubr
          -112 hhcurveto
          -275 -25 callgsubr
          198 callgsubr
          hintmask 01111000
          -314 114 callsubr
          -222 273 155 callsubr
          86 64 104 60 vhcurveto
          -115 -56 callsubr
          14 callgsubr
          -53.98 28 callgsubr
          hhcurveto
          46 35 31 callsubr
          18.98 44 hvcurveto
          -583 231.02 rmoveto
          -141 -45 -18 callgsubr
          140 callsubr
          74 49 84 callgsubr
          -56.02 28 callsubr
          vhcurveto
          -454 vlineto
          -66 callsubr
          -47 callgsubr
          -50 -27 -75 hhcurveto
          endchar
        </CharString>
        <CharString name="alpha.alt">
          59 2 callsubr
          -94 callsubr
          -231 43 806.98 252 hstemhm
          85 callsubr
          -102 callgsubr
          hintmask 00000000
          hintmask 01110000
          1116 hmoveto
          -115.02 540 108.01 542 rlineto
          -271.01 hlineto
          -22 -157 rlineto
          109 -29 callgsubr
          -98 68 -142 hhcurveto
          -287 170 callsubr
          198 callgsubr
          hintmask 10110000
          -314 155 -222.98 284 147 100 -43 callsubr
          154 callsubr
          -43 callsubr
          vhcurveto
          hintmask 01110000
          24 170 callsubr
          rlineto
          -84.99 486.99 rmoveto
          hintmask 10110000
          -133 -3 -52 -123 -138 hhcurveto
          -141 -45 120 140 callsubr
          194 callgsubr
          52 -134.99 -154 3 vhcurveto
          endchar
        </CharString>
        <CharString name="ampersand">
          230 2 callsubr
          -94 callsubr
          -231 43 -43 253.99 971 252 hstemhm
          64 -102 callgsubr
          -186 274.98 251.01 254 11.01001 263.98 hintmask 00000000
          hintmask 01011001
          1332.98 hmoveto
          hintmask 00111001
          -220 253.99 rlineto
          95 127 -95 callsubr
          163 180 vvcurveto
          -263.98 hlineto
          -95 -22 -85 -36 -71 vhcurveto
          -236.02 272 rlineto
          hintmask 10010110
          167 callsubr
          68 callgsubr
          rlineto
          113 80 81 154 callsubr
          134 vvcurveto
          187 -147 160 -229 -245 -158.99 -160 -229.99 -109.02 51 -98 82 -113.99 vhcurveto
          hintmask 10011010
          -153 -108.01 -106.99 -98 -169 vvcurveto
          -240.99 181.99 -170.99 294.01 145 114 32.97 187 callgsubr
          112 vhcurveto
          hintmask 01010110
          71 -81 rlineto
          -388.02 1224.99 rmoveto
          78 45 -60 -57 -49 -14.99 182 callsubr
          -83 -54 hvcurveto
          -71 -46 rlineto
          -66 callsubr
          65 -32 57 57 vvcurveto
          -17 callgsubr
          43 60 85 vhcurveto
          hintmask 10011010
          -35 -994 rmoveto
          -105 66 callsubr
          74 107.01 58 193 callsubr
          52 59 54.99 hvcurveto
          15.99 11 271.02 -309.98 rlineto
          189 callgsubr
          -56.02 -85 callsubr
          -16 -62 hhcurveto
          endchar
        </CharString>
        <CharString name="ampersand.smcp">
          227 2 callsubr
          249.98 -228.98999 194.99 -194.99 556.99 390 234 hstemhm
          82.98 -97 callgsubr
          -215.99998 263 209.98999 267.02 9.99 263.98 hintmask 00000000
          hintmask 00110101
          1264.99 hmoveto
          hintmask 01010101
          -199 194.99 rlineto
          hintmask 00110101
          76 86 51 114.01 162 vvcurveto
          -263.99 hlineto
          -68.01 -17 -85 callsubr
          -32 -50 vhcurveto
          -194.99 192 rlineto
          hintmask 10010110
          51 28 callsubr
          rlineto
          105 -46 callsubr
          78 -42 callgsubr
          111 vvcurveto
          193 -147 118 -230 -233 -129.99 -143 -25 callgsubr
          -118 52 -76 86 -89 vhcurveto
          -20 -13 rlineto
          hintmask 10011010
          -133 -81.98 -81 -80.02 -133 vvcurveto
          -186 176 -133.98 282.99 117 116 23.98 48 102.01 vhcurveto
          hintmask 00110110
          52 -51 rlineto
          -487 855.98 rmoveto
          50 35 41 69.98 66.01 39 16 callgsubr
          -37.99 -37.99 -11.98 1 callsubr
          13 callgsubr
          -52 vhcurveto
          -36 -22 rlineto
          -47 47 84 callgsubr
          -95 callsubr
          39 vvcurveto
          hintmask 10011010
          -48 callgsubr
          -627 rmoveto
          -93 -56 38 132 callsubr
          30 168 callsubr
          34 54 34.02 hvcurveto
          19 12 198.99 -197.02 rlineto
          -11 -40.98 -46.02 -5 -50 hhcurveto
          endchar
        </CharString>
        <CharString name="aring">
          -75 callsubr
          118.01001 30 callgsubr
          211.99998 96.01 -73 callgsubr
          -73 118 212.01001 113 callsubr
          -90.99 -102 callgsubr
          hintmask 0111110010100000
          544.99 1219.99 rmoveto
          hintmask 0111110011000000
          129 30 callgsubr
          89 110.99 110.02 67 callsubr
          93 -129 -130 -94 -93 -110.02 hvcurveto
          hintmask 0111110010100000
          -110.99 94 -89 130 vhcurveto
          hintmask 0111110011000000
          307 vmoveto
          65 41 -49 -58 -58 -41 -47 -65 118 callgsubr
          hvcurveto
          hintmask 0111110100100000
          446 -1257 -104 callgsubr
          hintmask 1011111000100000
          -98 callsubr
          hintmask 0111110010100000
          -60 callsubr
          hintmask 0111110100100000
          -30 callsubr
          hintmask 1011111000100000
          -103 callsubr
        </CharString>
        <CharString name="asciicircum">
          -225 1415.01999 -84 callsubr
          40.98 825.99 vstem
          866.98 728.99 rmoveto
          -298.98 727 rlineto
          -53 hlineto
          -175 hlineto
          -299 -727 rlineto
          241 hlineto
          172 453 190 callgsubr
          -453 rlineto
          endchar
        </CharString>
        <CharString name="asciitilde">
          182 369.99 -87 callgsubr
          191 callgsubr
          -94 callsubr
          hstemhm
          167 callgsubr
          225.99 656.99998 226.01 hintmask 00000000
          hintmask 10110000
          1210 797 rmoveto
          -226.02 15 callsubr
          rlineto
          -98 -52 -77 -74 -66 callsubr
          -10 callsubr
          155 callgsubr
          53 68 callsubr
          vhcurveto
          hintmask 01110000
          87 -88 -84 41.99 -105 hhcurveto
          -194.99 -136 -154.99 -267 hvcurveto
          226 -3 rlineto
          97.02 49 76 75 53 -26 callgsubr
          -28.02 -52.99 54 vhcurveto
          hintmask 10110000
          -91.01 94 74 -39 106 hhcurveto
          195.99 131 callgsubr
          163 264 hvcurveto
          endchar
        </CharString>
        <CharString name="asterisk">
          -191 1184.03 -99 callgsubr
          190.02998 -84 callsubr
          391.98 182.49 vstem
          346.99 957.99 rmoveto
          -222 -272 165 -111 26 callsubr
          282.99 182 -293 165 116 -214.02 265.01 325 -42 callgsubr
          -61.99 189 -305.99 -127 23 357.99 rlineto
          -205 hlineto
          22 -350.99 -314 157 callgsubr
          -62 -186 rlineto
          endchar
        </CharString>
        <CharString name="at">
          703 -452.99 -88 callgsubr
          247.01 133 callgsubr
          -167 186.98 634 185.99 253.02 169 hstemhm
          75.98 208.01 228.01001 128 callgsubr
          813.98999 189 hintmask 11011111
          963.99 1411.99 rmoveto
          -526 -338 -405.01 -547 -24 hvcurveto
          -597.97 -22 303 -315 534 hhcurveto
          124 156 29 60 93 hvcurveto
          -37.99 162 rlineto
          -37 -84 -8 callgsubr
          -29 -116 hhcurveto
          -407 -226.02 246 481.98 22.02 hvcurveto
          446.01 20.99 248 337 407.02 hhcurveto
          430.98 191.02 -282.99 -423.02 -21.01 hvcurveto
          -219 -7 -77 callgsubr
          -168 -123 hhcurveto
          -56 -59 29 117 168 callsubr
          hvcurveto
          148 callsubr
          583.99 rlineto
          57 -82 -73.01 53 -157 hhcurveto
          -242 -192 -216.99 -339 -38.99 hvcurveto
          hintmask 10111111
          -273 1 callsubr
          122 147 callsubr
          194 hhcurveto
          106.99 14 callgsubr
          113 callgsubr
          90.99 111 callsubr
          hvcurveto
          hintmask 11011111
          -89 44 87 -50.97 111 hhcurveto
          308 28 callgsubr
          286.98 280 148 callgsubr
          hvcurveto
          516 22 -284 350 -524 hhcurveto
          hintmask 10111111
          -89 -1242.01 rmoveto
          -97 -45 91.02 173 168 callsubr
          hvcurveto
          240 25 77 129.99 155 hhcurveto
          111 callgsubr
          24 -4 -6 22.02 hvcurveto
          69 callgsubr
          -460 rlineto
          -135 -46 -69 -29 -46 hhcurveto
          endchar
        </CharString>
        <CharString name="atilde">
          -75 callsubr
          153.01001 189.99 -106.00002 190 -73 callgsubr
          -231.98999 -7 callsubr
          339.01 -102 callgsubr
          -241.99 176 hintmask 0000000000000000
          hintmask 0111010011000000
          419.98 1338.98 rmoveto
          hintmask 0111100000100000
          103.02 48 callgsubr
          -38 -31 -45 vhcurveto
          hintmask 0111010011000000
          -98 69 callsubr
          27 callgsubr
          -106 hhcurveto
          -133 67 callsubr
          -129 164 callgsubr
          -10 rlineto
          61 36 3 callgsubr
          45 vhcurveto
          hintmask 0111100101000000
          571 -1069 -104 callgsubr
          hintmask 1011101001000000
          -98 callsubr
          hintmask 0111100001000000
          -60 callsubr
          hintmask 0111100101000000
          -30 callsubr
          hintmask 1011101001000000
          -103 callsubr
        </CharString>
        <CharString name="b">
          22 51 callsubr
          363.99 311 hintmask 10111000
          24 callsubr
          -109 -82 -42 -70.99 -62 hvcurveto
          547 182 callgsubr
          vlineto
          hintmask 01111000
          -1536 280 vlineto
          hintmask 10111000
          14.01 115 rlineto
          -85.02 64 88 -66 callsubr
          121 hhcurveto
          285 135 225.99 326 hvcurveto
          21 vlineto
          318.01 -135 231 -287 vhcurveto
          111 -570 rmoveto
          -177 -32.99 -123.99 -154 -91 -55.99 36 64 -30 vhcurveto
          419 vlineto
          64 30 54.99 35.99 90 hhcurveto
          152.99 36 -135.99 -161 hvcurveto
          endchar
        </CharString>
        <CharString name="b.ss06">
          42 51 callsubr
          384.00002 19 callgsubr
          hintmask 10111000
          24 callsubr
          -109 -82 -41 -71 -62 hvcurveto
          546.02 182 callgsubr
          vlineto
          hintmask 01111000
          -1536 270 vlineto
          hintmask 10111000
          19 121 rlineto
          -87 65 -34 callgsubr
          -54 124 hhcurveto
          285 155 234 315 hvcurveto
          21 vlineto
          -35 callsubr
          -155 223 -287 vhcurveto
          131 -572.99 rmoveto
          -166 -53 -132 -154 -86 -57 33 57 -34 vhcurveto
          441.02 vlineto
          57 34 -56 callgsubr
          110 callsubr
          188 callgsubr
          hhcurveto
          152.99 56 -128 130 callgsubr
          hvcurveto
          endchar
        </CharString>
        <CharString name="backslash">
          -262 1415.01999 -84 callsubr
          114 callgsubr
          929.97 vstem
          114 callgsubr
          -4 callgsubr
          607.99 -1580.99 rlineto
          321.98 hlineto
          -607.99 1580.99 rlineto
          endchar
        </CharString>
        <CharString name="bar">
          -610 1415.01999 -84 callsubr
          -75 callgsubr
          178.99 vstem
          351.99 -270 rmoveto
          1725.99 -179 -1725.99 vlineto
          endchar
        </CharString>
        <CharString name="braceleft">
          162 callsubr
          -41 callgsubr
          274.98 vstem
          489.98 166 callsubr
          rmoveto
          203 vlineto
          132.02 -51 callgsubr
          115 -126.02 63 vhcurveto
          126.02 63 54.99 115.02 132 vvcurveto
          203 vlineto
          138 32 114.01 112 41.99 vhcurveto
          -59 171 rlineto
          -275 -77 -85 147 callsubr
          -210 vvcurveto
          -203 vlineto
          -122 -50 -78 -120 vhcurveto
          -57 vlineto
          -164 vlineto
          120 50 1 callgsubr
          -121.02 hvcurveto
          -203 vlineto
          -209.98 85 -179 275 -77 vhcurveto
          59 -36 callgsubr
          rlineto
          -112 42 -32 113.99 137.99 vvcurveto
          endchar
        </CharString>
        <CharString name="braceright">
          162 callsubr
          181.99 275 vstem
          456.99 928.99 rmoveto
          203 vlineto
          210 -85 -27 callsubr
          -275 77 vhcurveto
          -59 -171 rlineto
          112 191 callgsubr
          28 callsubr
          -114.01 -138 vvcurveto
          -203 vlineto
          -133 56 -114.02 128 -63 vhcurveto
          -128 -63 -56 -114 186 callgsubr
          vvcurveto
          -203 vlineto
          -137.99 -47 callgsubr
          -113.99 -112 -42 vhcurveto
          59 130 callgsubr
          rlineto
          275 77 85 179 209.98 vvcurveto
          203 vlineto
          121.02 -56 callsubr
          18 callgsubr
          120.02 vhcurveto
          60 vlineto
          161 vlineto
          -120.02 -66 callsubr
          78 122 hvcurveto
          endchar
        </CharString>
        <CharString name="bracketleft">
          122 callgsubr
          115 -28 callsubr
          558 1463.99 rmoveto
          239 -443 -2049 443 238.02 -131 1571.98 vlineto
          endchar
        </CharString>
        <CharString name="bracketright">
          122 callgsubr
          145.98 -97 callgsubr
          vstem
          168 callsubr
          1702.99 rmoveto
          -239 132 -1571.98 -132 -238.02 444 2049 vlineto
          endchar
        </CharString>
        <CharString name="brokenbar">
          -611 1415.01999 -84 callsubr
          -42 callsubr
          275 vstem
          398.99 698 rmoveto
          757.99 -275 -757.99 vlineto
          -968 vmoveto
          275 794.99 -275 hlineto
          endchar
        </CharString>
        <CharString name="bullet">
          -384 491.99 509.99 hstem
          134.98 490 vstem
          134.98 763.99 rmoveto
          -36.99 vlineto
          153 callgsubr
          96.01 -96.99 150 152 92 96.99 131 callgsubr
          vhcurveto
          98 callgsubr
          vlineto
          139 -92 99 -154 -25 callgsubr
          172 callgsubr
          -99 -139 vhcurveto
          endchar
        </CharString>
        <CharString name="c">
          -64 -12 callsubr
          -76 callsubr
          -97 callgsubr
          350.98 293 vstem
          722.98 381.99 rmoveto
          -93 -1 -64.99 -57 -100 hhcurveto
          -5 callgsubr
          111 56 99 callsubr
          -100 1 vhcurveto
          3 callsubr
          -311 166.99 -236.99 336.02 255 197 163 239 1 vhcurveto
          endchar
        </CharString>
        <CharString name="c.ss06">
          -31 -12 callsubr
          168 callgsubr
          -99 callsubr
          377.99998 293 vstem
          752.99 381.99 rmoveto
          -93 14 callsubr
          -71 -57 -101 hhcurveto
          -157 -46 134 162 hvcurveto
          98 callsubr
          vlineto
          158 47 139 154 66 callgsubr
          68 callgsubr
          99 callsubr
          -100 31 callsubr
          vhcurveto
          293.01 hlineto
          83 callgsubr
          -7 -188 -29 callsubr
          -268 hhcurveto
          109 callgsubr
          -185 -238 -311 hvcurveto
          -24.99 vlineto
          -311 185 -236.99 336 255 200 163 239 7 vhcurveto
          endchar
        </CharString>
        <CharString name="ccedilla">
          -64 -469.99 70 callgsubr
          281.01 43 -42.01 43 814.98 252 59 callgsubr
          180.98 267.02 -97.02 293 hintmask 10111100
          556.99 232 rmoveto
          -5 callgsubr
          vhcurveto
          hintmask 11011010
          111 56 99 callsubr
          -100 1 hvcurveto
          3 callsubr
          -271.01 127 -215 255.02 -50.97 vhcurveto
          hintmask 10111100
          -27.01 -128 rlineto
          98 -6 40 112 callgsubr
          -53 vvcurveto
          -56 191 callgsubr
          46 callgsubr
          147 115 -76 45 -51 callsubr
          13 hvcurveto
          8.01 -26 callgsubr
          197 41 140 147 1 202 rlinecurve
          -293.01 hlineto
          -93 -1 -64.99 -57 -100 hhcurveto
          endchar
        </CharString>
        <CharString name="cedilla">
          -572 -468.99 70 callgsubr
          238.01 -76 callsubr
          hstem
          230.99 266.99 vstem
          358.99 8.99 rmoveto
          -235 hlineto
          84 callgsubr
          -145 rlineto
          98 -6 40 -16 -53 vvcurveto
          -55.99 -42 46 callgsubr
          146.99 115.02 -76 113 callgsubr
          -74 13 hvcurveto
          endchar
        </CharString>
        <CharString name="cent">
          63 -245 476.99 -244.99 43 -41 43 817.98 468 hstemhm
          98.97 -97 callgsubr
          94.01001 150 callsubr
          57.01 292.98 hintmask 00000000
          hintmask 10011110
          595.99 232 rmoveto
          -5 callgsubr
          112 56 99 callsubr
          -100 vhcurveto
          292.99 hlineto
          hintmask 01011100
          -1 235 -139 151 -210 36 rrcurveto
          225 -199.99 -223 vlineto
          -271.02 191 callgsubr
          -135 -220.02 -280 vvcurveto
          -24.99 vlineto
          -279 134 -220 272.02 -42 vhcurveto
          hintmask 10011100
          -232 150 callsubr
          vlineto
          hintmask 00111100
          234 vlineto
          hintmask 10011110
          203 36.98 146 150 1 206 rrcurveto
          -292.99 hlineto
          -93 -65 -57 -101.01 vhcurveto
          endchar
        </CharString>
        <CharString name="circumflex">
          -107 1242.99 162 callgsubr
          183 callgsubr
          801.01 hintmask 10100000
          913 1256 rmoveto
          hintmask 01100000
          -28 callgsubr
          280 rlineto
          -180 hlineto
          hintmask 10100000
          95 callgsubr
          hintmask 01100000
          0 callsubr
          247 hlineto
          endchar
        </CharString>
        <CharString name="colon">
          -536 135 callgsubr
          -35 callsubr
          474.98 329.99 hstem
          121 184 callsubr
          vstem
          294.99 41 callgsubr
          -804.99 vmoveto
          63 callsubr
          endchar
        </CharString>
        <CharString name="comma">
          -606 -384 635.98 hstem
          144.99 72 callgsubr
          vstem
          399.99 -83 callsubr
          rmoveto
          1 209 rlineto
          -256 158 callsubr
          -46 -91.02 vhcurveto
          -29 callsubr
          -80 rlineto
          115.02 100 86 199 callsubr
        </CharString>
        <CharString name="copyright">
          477 -20 28 callgsubr
          176.98999 135 623.01001 135 175.98999 125 hstem
          86 122 224.98 154.99 373.01 156.01 266.00002 -91 callgsubr
          321 491 rmoveto
          -156.02 hlineto
          -130 -85 callsubr
          97 callgsubr
          -118 -128 -66 103 149 vhcurveto
          120 vlineto
          147 66 104 128 118 62 -51 -128 vhcurveto
          156 hlineto
          209 -129.99 105 -206 -215 -134 -158 -229 vhcurveto
          -118.99 vlineto
          -230 134 -157 215 206 129 104 210 vhcurveto
          endchar
        </CharString>
        <CharString name="crossbar">
          -140 650.99 187.99 hstem
          139.98 714.01 vstem
          854 651 rmoveto
          187.99 -714.02 -187.99 vlineto
          endchar
        </CharString>
        <CharString name="currency">
          277 -20 192 870.98 190.99 hstem
          66 callgsubr
          185.99 819.02 -88 callgsubr
          vstem
          1300.99 607.99 rmoveto
          137 -40 124 71 callgsubr
          101 vhcurveto
          148 150 -142 145 -145 -25 callgsubr
          rlineto
          74 -98 -119.99 -83 callsubr
          -130 hhcurveto
          -130 -119.99 191 callgsubr
          -73.01 -98 hvcurveto
          -142 145 -141 -144 144.02 -147 rlineto
          -69 -101.99 69 callgsubr
          -125.01 -138 vvcurveto
          -131.99 37 -121.02 63 -98.98 vhcurveto
          -135 153 callgsubr
          141 -143.99 129 131.99 rlineto
          -80 100 28 callgsubr
          -45.99 136 hhcurveto
          136 28 callgsubr
          47 81 100 hvcurveto
          131.99 -134.98 142 144.98 -139 141 rlineto
          149 callsubr
          99 36 166 callgsubr
          130 vvcurveto
          -594 -436 rmoveto
          -228 -182 189.99 246 246 182 188.99 228 226 183 -188.99 -246 -246 -183 -189.99 -226 hvcurveto
          endchar
        </CharString>
        <CharString name="d">
          22 8 callgsubr
          617.98999 252 59 callgsubr
          362.98 -102 callgsubr
          hintmask 10111000
          734.99 200 callsubr
          -550.02 vlineto
          29 callgsubr
          -63 -83 43 -106 hhcurveto
          -273 -150 139 callsubr
          150 -233 83 callgsubr
          116 89 51.99 85 111 callsubr
          vhcurveto
          hintmask 01111000
          15.02 -116.98 rlineto
          280.98 1536 hlineto
          hintmask 10111000
          -488 -1304 rmoveto
          -141 182 callsubr
          129.99 166 hvcurveto
          21 vlineto
          172 51 157 callgsubr
          139 27 callsubr
          57.02 -35.99 71 callgsubr
          28 callsubr
          vhcurveto
          -412 vlineto
          -65 119 callsubr
          -37.99 -85.02 hhcurveto
          endchar
        </CharString>
        <CharString name="d.ss06">
          45 -20 252 -232 43 806.98 252 hstemhm
          168 callgsubr
          19 callgsubr
          384.01 -102 callgsubr
          hintmask 01111000
          757.99 200 callsubr
          -550.02 vlineto
          29 callgsubr
          -64 -83.01 43 -105.98 hhcurveto
          -272.02 -169.99 -222 30 callsubr
          hvcurveto
          -21.01 vlineto
          hintmask 10111000
          -314.98 169.99 -235 270 120 14 callgsubr
          54 -34 callgsubr
          66 vhcurveto
          hintmask 01111000
          20.99 -122.98 rlineto
          271 1536 hlineto
          hintmask 10111000
          -488 -1304 44 callgsubr
          71 127 140 -9 callsubr
          58 -47 callgsubr
          -59 36 vhcurveto
          -433 vlineto
          86 callsubr
          -36 86 callsubr
          -35 -80.02 hhcurveto
          endchar
        </CharString>
        <CharString name="degree">
          -327 920.98 152 252.01001 150.99 hstem
          13 callsubr
          150.99 246.99998 150.01 vstem
          401.98 1475.99 rmoveto
          -151 171 callsubr
          -126.01 -152.99 -153 28 callgsubr
          -123 151 190 callsubr
          122 123 153 152.99 -122 126.01 -150.02 hvcurveto
          -403 vmoveto
          -68 -57 53 71 73 57 55 68 187 callgsubr
          52.99 -55 -73 -72 -52.99 -52 -69.02 hvcurveto
          endchar
        </CharString>
        <CharString name="dieresis">
          -148 1233.98 262 hstem
          30 callgsubr
          108 callsubr
          212.99 -59 callsubr
          vstem
          238.98 1495.98 rmoveto
          -81 -44 callsubr
          81 82 116 callgsubr
          -82 hvcurveto
          26 callgsubr
          94 callsubr
          81 197 callgsubr
          -81 hvcurveto
          endchar
        </CharString>
        <CharString name="divide">
          36 116.98 320 129 239 122 320 hstem
          404.99 184 callsubr
          vstem
          579.99 1246.99 36 callsubr
          517 -681 rmoveto
          239 -1035 -239 vlineto
          518 -129 36 callsubr
          endchar
        </CharString>
        <CharString name="dollar">
          50 -217 443.98 -243.98 43 1202.98 457.01 -255.95999 -99 callgsubr
          -37.97002 9 callsubr
          87.98 -97 callgsubr
          -257.99998 -99 callsubr
          75.01 165 callsubr
          -139.00002 159 68 -97 callgsubr
          hintmask 0100101011000000
          646.98 862.99 rmoveto
          hintmask 0110001011000000
          -25 callgsubr
          61 -10 callsubr
          -56 callsubr
          93 vvcurveto
          14 callgsubr
          47 -17 callsubr
          110 100 69 -67.99 -155 75 callgsubr
          hlineto
          hintmask 0101001011000000
          150 callgsubr
          -151 185 callsubr
          -233 35 vhcurveto
          hintmask 0110001011000000
          215 -159 vlineto
          hintmask 1000101011000000
          -212 vlineto
          -244 -24 -163 170 callsubr
          -227 vvcurveto
          -269 180 -98 263 -104 vhcurveto
          139 -55 52 -48 -110 vvcurveto
          -88 -51 callgsubr
          -70 -114.01 vhcurveto
          hintmask 1000110011000000
          -106 -100.99 55 182 hvcurveto
          182 callgsubr
          hlineto
          hintmask 0100110101000000
          -326 215 -131 226.02 -23.98 vhcurveto
          hintmask 1000101101000000
          -200 165 callsubr
          vlineto
          hintmask 0100101101000000
          200 vlineto
          241 111 callgsubr
          159 144 234 vvcurveto
          hintmask 0100101011000000
          267 -182 157 callsubr
          -259.01 154 callsubr
          vhcurveto
          endchar
        </CharString>
        <CharString name="dollar.smcp">
          -23 -236.99 447.98 -222.98999 43 -43 222.99 742 441.99 93 callsubr
          99.01 160 74 -97 callgsubr
          -297.99998 293.99 hintmask 0101011010000000
          588.98 715.98 rmoveto
          54 callgsubr
          vhcurveto
          hintmask 0101011100000000
          111 64 -66.01 -71 hvcurveto
          134 callsubr
          hlineto
          207.02 -156.02 -42 callsubr
          -229.99 155 callgsubr
          vhcurveto
          220 -160 -216 vlineto
          -228.99 127 callsubr
          -163 -134.98 -192 vvcurveto
          136 callsubr
          hintmask 0011101010000000
          138 callsubr
          -152 -65 48 118 vhcurveto
          -313 hlineto
          -253 209 -115 222.99 2 callsubr
          vhcurveto
          hintmask 1001011010000000
          -224.99 160 vlineto
          hintmask 0101011010000000
          224.99 vlineto
          234 21.99 114 callsubr
          120 197 vvcurveto
          223 109 callsubr
          -48 callgsubr
          -299.01 64 vhcurveto
          endchar
        </CharString>
        <CharString name="dotlessi">
          -559 0 43 hstem
          128.98 -80 callsubr
          vstem
          442 hmoveto
          23 callgsubr
        </CharString>
        <CharString name="e">
          -4 callsubr
          571.99 -106 callgsubr
        </CharString>
        <CharString name="e.ss07">
          -4 callsubr
          575 rmoveto
          321 -174 130 callsubr
          -310 -327 -186 -239 -318 vhcurveto
          -39 vlineto
          -294.01 214 -231.99 346.01 175.98 136 50.99 50 -19 callsubr
          vhcurveto
          -55 15 callgsubr
          rlineto
          -39 -75 -117 -28 -95.99 hhcurveto
          -177 -8 callsubr
          119 callgsubr
          -22.02 hvcurveto
          679.02 hlineto
          -306.01 207 rmoveto
          -372 hlineto
          119 19 -56 callgsubr
          85 119.01 hhcurveto
          126 52 -69 -109 hvcurveto
          endchar
        </CharString>
        <CharString name="eacute">
          -70 callgsubr
          122 312.99 89 callgsubr
          915.99 1536.98 rmoveto
          -334 hlineto
          -20 callsubr
          426 -652 -106 callgsubr
        </CharString>
        <CharString name="ecircumflex">
          -70 callgsubr
          142.01001 -81 callgsubr
          -54 callsubr
          hintmask 00000000
          hintmask 11101110
          538.99 1381.99 -14 callsubr
          hintmask 11110110
          7 callsubr
          681 -672.01 -106 callgsubr
        </CharString>
        <CharString name="edieresis">
          -70 callgsubr
          133 262 hstemhm
          -43 callsubr
          318.99 185 callgsubr
          -59 callsubr
          213.01 -59 callsubr
          -176.00002 306.01 hintmask 00000000
          hintmask 11110110
          286.98 1234.98 -92 callsubr
          hintmask 11111001
          274 -663 -106 callgsubr
        </CharString>
        <CharString name="egrave">
          -70 callgsubr
          122 312.99 89 callgsubr
          713.99 1223.99 -38 callsubr
          604.02 -652 -106 callgsubr
        </CharString>
        <CharString name="eight">
          -101 callgsubr
        </CharString>
        <CharString name="eight.frac">
          127 callgsubr
          -50 callgsubr
          -75 callgsubr
          139.01 173.01 -85 callgsubr
          566.99 1070.98 rmoveto
          hintmask 11101100
          69 35 41 58 75.02 vvcurveto
          149 126 callgsubr
          -149 -75.02 94 callgsubr
          -36.99 -50 -63 -88 vvcurveto
          -155.02 0 callgsubr
          155.02 87 -49 64 -79 98 callgsubr
          176 callsubr
          -18 callsubr
          -43 -24 -29 -51 callgsubr
          -53 -27.01 29 43 43 27.01 23.99 51 hvcurveto
          hintmask 11110010
          2 -465.99 rmoveto
          -58 -40 3 callgsubr
          49 51 40 24 -56 callgsubr
          59 41 -24 -51 -49 -39 -29.99 -59 hvcurveto
          endchar
        </CharString>
        <CharString name="eight.smcp">
          -61 -81 callsubr
          -78 callgsubr
          232.99 251 211.01001 -94 callsubr
          hstemhm
          -17 callgsubr
          -102 callgsubr
          -285.99 -102 callgsubr
          241.01 -99 callsubr
          -282.99 19 callgsubr
          hintmask 11110010
          804.99 599.98 rmoveto
          hintmask 11101100
          102.01 53 -76 callsubr
          86 111 vvcurveto
          219 147 callsubr
          128 callsubr
          -255 -250 -183 -112.99 -219 -111 63 -86 157 callsubr
          -52 vhcurveto
          hintmask 11110010
          -116 -54 -75 -93.98 -130 vvcurveto
          -228 199 -110.98 150 callgsubr
          266.02 192.98 66 callgsubr
          228 129 32 callgsubr
          94 -117 -48 callsubr
          vhcurveto
          hintmask 11101100
          -270.99 330.02 rmoveto
          82 39 -35 -66.01 -65 -37 -45 -82 -81 -41 45 65 65 42 36 -19 callsubr
          hvcurveto
          hintmask 11110010
          1.99 -695.01 rmoveto
          -87.98 -61 46 -17 callgsubr
          77 61 36 86 88 62 -36 -77 12 callsubr
          -60 -46 -88 hvcurveto
          endchar
        </CharString>
        <CharString name="eight.sup">
          124 callgsubr
          153.98 -75 callgsubr
          139.02 -75 callgsubr
          -85 callgsubr
          566.99 406 rmoveto
          hintmask 11101100
          69 36 41 58 75 vvcurveto
          181 callsubr
          -122 77 -173 -170 -124 -77 171 callgsubr
          -75 94 callgsubr
          -37 -50 -63 -88 vvcurveto
          -154.99 0 callgsubr
          154.99 87 -49 64 -79 36 vhcurveto
          hintmask 11101100
          -185 222 rmoveto
          54.99 25 -23 -44 -43 -24 -29 -51 callgsubr
          -53 -27.01 29 43 43 27.01 24 52 hvcurveto
          hintmask 11110010
          1 -466 rmoveto
          -57.02 -40.99 30 48.99 51 40.99 24 56 58 41 -24 -51 97 callgsubr
          -39 -30 -59 hvcurveto
          endchar
        </CharString>
        <CharString name="eight.tnum">
          -101 callgsubr
        </CharString>
        <CharString name="ellipsis">
          418 135 callgsubr
          -35 callsubr
          hstem
          -26 callsubr
          184 callsubr
          131.99998 348.02 126.99 169 callgsubr
          vstem
          304.98 317.99 rmoveto
          63 callsubr
          481 hmoveto
          -105 -69 -71 -94 -93 69 -70.98 105 105 187 callgsubr
          146 callgsubr
          94 -69.02 71 -105 hvcurveto
          475.01 hmoveto
          54 callsubr
        </CharString>
        <CharString name="emdash">
          422 583.98 72 callgsubr
          hstem
          98 1392.98 vstem
          1490.98 163 callsubr
          -1392.99 -255 vlineto
          endchar
        </CharString>
        <CharString name="endash">
          150 583.98 72 callgsubr
          hstem
          181 callsubr
          1044.99 vstem
          188 callsubr
          163 callsubr
          -1044.99 -255 vlineto
          endchar
        </CharString>
        <CharString name="equal">
          54 291.98 253 185 252 hstem
          132.99 908.98 vstem
          1041.98 729.99 rmoveto
          252 -908.99 -252 vlineto
          908.99 -438 rmoveto
          253 -908.99 -253 vlineto
          endchar
        </CharString>
        <CharString name="eth">
          42 -20 252 495.98 235 hstem
          75 -99 callsubr
          415 -28 callsubr
          856.99 1305.99 rmoveto
          132 83 -77 116 -167 -104 -116.99 86 -142 60 -157 28 callsubr
          rlinecurve
          -99 -238 88 -22 87 -34 18 callgsubr
          -48 rlinecurve
          109 callsubr
          -89 -19 callsubr
          -117 133 callsubr
          115.02 71 -66 57 13 callgsubr
          35 -101.99 rlinecurve
          -26 callgsubr
          -29 callgsubr
          -81.02 25.01 -9 callgsubr
          hhcurveto
          -291 -162 -198 -297 -272 204 -216 304.99 306.01 223.99 246.98 361 hvcurveto
          66 vlineto
          267 -95.99 223 -161 162 vhcurveto
          -269 -1073.99 rmoveto
          -127 12 callsubr
          -48 callgsubr
          134 161 69 99 141 101 -43 callsubr
          -47 callgsubr
          -40 37 hvcurveto
          -104 vlineto
          -183 -71 -136.99 -143 vhcurveto
          endchar
        </CharString>
        <CharString name="exclam">
          -570 -18 -35 callsubr
          1104.02998 9 callsubr
          113.99 169 callgsubr
          -319.99 293.99 hintmask 11010000
          416.99 456.99 rmoveto
          -95 callsubr
          998.99 rlineto
          -332 hlineto
          38 -998.99 rlineto
          hintmask 11100000
          127 -146 rmoveto
          -104 -70 -71 -93 -94 70 -70.98 104 104 70 107 callgsubr
          94 93 -70 71 -104 hvcurveto
          endchar
        </CharString>
        <CharString name="exclamdown">
          -535 773.98 328 hstemhm
          13 callsubr
          169 callgsubr
          -322.00002 294.01 hintmask 00000000
          hintmask 11000000
          299.99 773.98 115 callsubr
          hintmask 10100000
          -129 -145.99 rmoveto
          -37.99 -998.99 rlineto
          332 hlineto
          -38 998.99 rlineto
          endchar
        </CharString>
        <CharString name="f">
          -393 -58 callsubr
          vstem
          651 1304.99 rmoveto
          42 callgsubr
          hvcurveto
          -92 callgsubr
          213 227 -213 124 callsubr
          vhcurveto
          endchar
        </CharString>
        <CharString name="f_f">
          345 -58 callsubr
          425.01 -19 callgsubr
          180 1171.99 rmoveto
          -8 callsubr
          -158 -227 158 -855 313 855 213 227 -213 124 callsubr
          42 callgsubr
          vhcurveto
          240 vlineto
          11.98 -47 -50.02 9.01 -51 callgsubr
          hhcurveto
          -249 -157 -135 -250 hvcurveto
          1209 133 rmoveto
          36 111 callgsubr
          14 callsubr
          -6 25 hvcurveto
          -92 callgsubr
          212.99 227 -212.99 124 callsubr
          vhcurveto
          endchar
        </CharString>
        <CharString name="f_f_i">
          807 101 callsubr
          -252.01 252 hstemhm
          43 callgsubr
          126 callsubr
          126 callsubr
          hintmask 11101110
          1154.99 1114.99 rmoveto
          111 70 -76 callsubr
          128 123 18 callgsubr
          -23.99 -21.01 76 vhcurveto
          44 258 rlineto
          34 -118 -105 24 -117 hhcurveto
          -310.99 -180 -155 -287 hvcurveto
          -33 -137 vlineto
          -213 hlineto
          hintmask 11011110
          124 callsubr
          42 callgsubr
          vhcurveto
          -92 callgsubr
          191 vlineto
          159 -855 312 855 212 227 -212 hlineto
          350 hmoveto
          -1082 312 1082 vlineto
          endchar
        </CharString>
        <CharString name="f_f_l">
          807 -58 callsubr
          126 callsubr
          126 callsubr
          vstem
          1305.99 1556.99 rmoveto
          -293 -169.99 -142 -261 hvcurveto
          12 callgsubr
          -137 vlineto
          -213 -42 callgsubr
          hlineto
          86 57 47 101 42 callgsubr
          vhcurveto
          -92 callgsubr
          191 vlineto
          159 -855 312 855 212.99 227 -212.99 -17 callsubr
          hlineto
          96.99 70 54 13 callsubr
          50.02 51 19 callsubr
        </CharString>
        <CharString name="f_l">
          145 -58 callsubr
          126 callsubr
          vstem
          643.99 1556.99 rmoveto
          -293 -170.99 -142 -261 hvcurveto
          12 callgsubr
          -158 -227 158 -855 313 855 213 227 -213 -17 callsubr
          vlineto
          96.99 70 54 13 callsubr
          -56 callsubr
          148 callsubr
          19 callsubr
        </CharString>
        <CharString name="fi">
          142 101 callsubr
          hstem
          -27 callsubr
          -102 callgsubr
          348.99998 -19 callgsubr
          490.99 1114.99 rmoveto
          111 69 -76 callsubr
          128 123 -19 callsubr
          -23.99 -21.01 76 vhcurveto
          -26 callgsubr
          258 rlineto
          34 -117 -106 24 -116.99 hhcurveto
          -311 -180 -155 -287 hvcurveto
          -33 -159 -227 159 -855 313 855 212 227 -212 vlineto
          349 hmoveto
          -1082 313 1082 vlineto
          endchar
        </CharString>
        <CharString name="five">
          50 -20 252 497.98 228 243 72 callgsubr
          hstem
          781.98 -28 callsubr
          127 712.99 rmoveto
          247.99 -61 rlineto
          36 33 148 callsubr
          42 -48 callgsubr
          hhcurveto
          153 68 -94 -146 16 callsubr
          -47 -117 -141 -107.99 69 callsubr
          69 110 153 callsubr
          hvcurveto
          169 callsubr
          hlineto
          -268 2 245 -163 255 hhcurveto
          340.01 157.99 235 254 310 -162 179 -285 -94 -77 callgsubr
          -34 127 callsubr
          -36 hvcurveto
          35 297 rlineto
          578.01 255 -833 hlineto
          endchar
        </CharString>
        <CharString name="five.frac">
          127 callgsubr
          213.00002 144.99 101.99998 167 hstem
          -12 callgsubr
          vstem
          149 callgsubr
          1044.99 rmoveto
          170 -43 46 callsubr
          25 -46 callsubr
          hhcurveto
          77 36 -41 -67.02 -51 callgsubr
          -17.02 -50 -80 -37 callsubr
          16 callgsubr
          15 48 hvcurveto
          -216 hlineto
          -145 1 154 -91.02 38 callsubr
          162.02 -93 90.99 -177 -56 -57 -20 -23 callgsubr
        </CharString>
        <CharString name="five.smcp">
          -61 -81 callsubr
          -78 callgsubr
          -250.98 347.98 224.00002 211 152.98999 245 hstemhm
          677.99 -99 callsubr
          hintmask 10111000
          93.98 561.99 rmoveto
          248.02 -61 rlineto
          18 24 -26 callgsubr
          37 98 hhcurveto
          115 55 -62 -99 -83 -28 -77 -118 hvcurveto
          hintmask 01111000
          -8 callsubr
          -58 24 29 callgsubr
          -2 hvcurveto
          -314 hlineto
          hintmask 10111000
          -214 1.99 226.02 -133.98 -7 callgsubr
          hhcurveto
          313 145 203.98 206 238 -138 135 -261 -83 -83 -29 -10.02 17 callsubr
          hvcurveto
          29 192 rlineto
          495 245 -748.01 hlineto
          endchar
        </CharString>
        <CharString name="five.sup">
          124 callgsubr
          170 callgsubr
          -7 callgsubr
          149.98 55 callgsubr
          hstemhm
          -12 callgsubr
          hintmask 10111100
          149 callgsubr
          380.99 rmoveto
          170 -43 46 callsubr
          25 -46 callsubr
          hhcurveto
          77 36 -41 -29 callgsubr
          -55 -17.02 -66 callsubr
          -80 hvcurveto
          hintmask 01111100
          -37 callsubr
          16 callgsubr
          193 callsubr
          48 hvcurveto
          -216 hlineto
          hintmask 10111100
          -145 1 154 -90.99 38 callsubr
          162 -93 91 -177 -56 -57 -19.99 -23 callgsubr
        </CharString>
        <CharString name="five.tnum">
          0 endchar
        </CharString>
        <CharString name="four">
          50 0 43 267.98 252 852.04 -84 callsubr
          654.99 -28 callsubr
          1122.98 563 rmoveto
          -156 892.99 -29 callgsubr
          hlineto
          -246 hlineto
          -596.99 -945.99 17 -199 rlineto
          581 -310.98 -99 callsubr
          19 callgsubr
          156 hlineto
          -762 252 rmoveto
          273.02 433.99 21 36 rlineto
          -470 vlineto
          endchar
        </CharString>
        <CharString name="four.frac">
          821.98 89 callsubr
          995.98 rmoveto
          -77 callgsubr
          457.01 -215 hlineto
          -353.01 -489 13 -142 rlineto
          340 -158 215 158 27 callsubr
          hlineto
          -449 174 rmoveto
          135 175 83 callsubr
          23 rlineto
          -198 vlineto
          endchar
        </CharString>
        <CharString name="four.smcp">
          -61 0 43 190.98 254 hstem
          573.99 -28 callsubr
          1014.99 488 rmoveto
          -129 676.99 -63 hlineto
          -249 14 callsubr
          hlineto
          -521.01 -721 20.01 -207.02 rlineto
          501 -233.98 312 233.98 129 hlineto
          -665 254.02 rmoveto
          206 264.99 18 28 rlineto
          -292.98 vlineto
          endchar
        </CharString>
        <CharString name="four.sup">
          0 331.98 -174 173.99 hstemhm
          406.99 -41 callgsubr
          hintmask 10100000
          705.99 331.98 rmoveto
          -77 callgsubr
          457.01 -215 hlineto
          hintmask 01100000
          -353.01 -489 13 -142 rlineto
          340 hlineto
          hintmask 10100000
          -157.98 215 vlineto
          hintmask 01100000
          157.98 27 callsubr
          vlineto
          hintmask 10100000
          -449 174 rmoveto
          135 175 83 callsubr
          23 rlineto
          -198 vlineto
          endchar
        </CharString>
        <CharString name="four.tnum">
          56 endchar
        </CharString>
        <CharString name="fraction">
          -223 195 callgsubr
          1216 hstem
          23 859.99 vstem
          -36 callgsubr
          195 callgsubr
          172 callsubr
          -710.99 -1138.01 rlineto
          endchar
        </CharString>
        <CharString name="g">
          43 -426 242 164 -86 callgsubr
          hstem
          168 callgsubr
          -99 callsubr
          381.99998 -97 callgsubr
          vstem
          786.98 1082 rmoveto
          -12 -99 rlineto
          75 -85 callsubr
          -86 -26 callgsubr
          -124 hhcurveto
          -273 -168 139 callsubr
          168 -233 271 195 callgsubr
          83.01 42 70 63 vhcurveto
          -50.02 vlineto
          -143.97 -85 -82 -150 -108.01 -87 47 111 callsubr
          -37 callsubr
          vhcurveto
          -135 -191 rlineto
          -109 91 174 -55 131 callgsubr
          hhcurveto
          318 216 167 299.97 hvcurveto
          1041.02 vlineto
          -488 -850 rmoveto
          -141 -65 129.99 166 hvcurveto
          21 vlineto
          172 69 157 callgsubr
          139 83 56 -29.99 -56 35 vhcurveto
          -446 vlineto
          -54 -35 -56 -47 callgsubr
          -84.99 hhcurveto
          endchar
        </CharString>
        <CharString name="g.alt">
          -48 -438 231.99 206.98999 234 106.01001 233 294.98999 233 -174 154 hstemhm
          -13 292 -238.02 310 -208.98999 217 331 310 -257 310 hintmask 0000000000000000
          hintmask 1110100101000000
          672.99 128 callgsubr
          rmoveto
          -187 hlineto
          69 callsubr
          -51 callgsubr
          11 60 192 callgsubr
          7 16.02 12 12.98 hvcurveto
          153 callsubr
          44 49 -5 51 hhcurveto
          hintmask 1110101010000000
          290 188 163 -89 callgsubr
          hvcurveto
          22.02 vlineto
          74 -21.02 111 callsubr
          -40 55 vhcurveto
          118 hlineto
          -2 154 rlineto
          -362 hlineto
          107 callsubr
          -52 -58 7 -63 hhcurveto
          -289 -190 171 callgsubr
          -220 hvcurveto
          -22.02 vlineto
          -134.98 81.02 -116.02 194 callgsubr
          -64.99 vhcurveto
          hintmask 1110100110000000
          -62 -41 -54 -58 -87 vvcurveto
          -53 16 -41 155 callgsubr
          189 callgsubr
          vhcurveto
          hintmask 1110110001000000
          -106 -45 -92.99 -80.99 -120 vvcurveto
          -147 -27 callsubr
          -129 70 callsubr
          355.99 203.02 199 169 vhcurveto
          hintmask 1110100101000000
          192 -140 128 callsubr
          -240 vhcurveto
          hintmask 1111001010000000
          -322 498.01 rmoveto
          18 callgsubr
          63 58 106 107.01 63 -58 1 callgsubr
          vhcurveto
          -22.02 vlineto
          -74 -61 -63 -106.99 -109 -62 63 74 vhcurveto
          hintmask 1110110001000000
          143 -916.99 rmoveto
          -146 -69 56 65 41.99 23 34.02 28 callsubr
          17.98 hvcurveto
          -5 29 32 -3 28 callsubr
          hhcurveto
          192 hlineto
          96.01 28 182 callsubr
          -42 -51 callgsubr
          -70 67 callgsubr
          -179 hvcurveto
          endchar
        </CharString>
        <CharString name="g.ss06">
          44 -426 242 164 40 callgsubr
          797.98 1082 rmoveto
          -16 187 callsubr
          rlineto
          78 -85 callsubr
          -88 46 -128 hhcurveto
          -273 -169 50 callgsubr
          169 82 callsubr
          270.99 110 83 42 71 62 vhcurveto
          -10.02 vlineto
          -180.98 -83.01 -86 -179 -93 -63 18.99 155 callgsubr
          -74 vhcurveto
          -42 -223 rlineto
          -49 96.02 121 -17 94 hhcurveto
          332.99 203 182 325.98 hvcurveto
          1000.02 vlineto
          -488 -850 rmoveto
          16 callsubr
          -68.01 133 165.99 hvcurveto
          112 callsubr
          vlineto
          -36 callgsubr
          71 126 140 82 57 -29 -56 34 vhcurveto
          -444.99 vlineto
          -55 -34 -57 -33 13 callgsubr
          hhcurveto
          endchar
        </CharString>
        <CharString name="g.ss07">
          43 -426 242 164 22 callgsubr
          -17 187 callsubr
          rlineto
          78 -85 callsubr
          -87.02 46 -128 hhcurveto
          -273 -150 50 callgsubr
          150 82 callsubr
          83 callgsubr
          109 83 42 71 62 vhcurveto
          -11.02 vlineto
          -179.98 -83 -86 -178 -92 -61 18 27 -74 vhcurveto
          -42 -223 rlineto
          -48 95.01 -18 callgsubr
          -16 94 hhcurveto
          332 203 181 326 hvcurveto
          1001 53 callsubr
          -36 callgsubr
          51 126 139 88 54.99 -33 -61.99 30 vhcurveto
          -425 vlineto
          -61 -30 -51 callgsubr
          -36.99 72 callsubr
          hhcurveto
          endchar
        </CharString>
        <CharString name="germandbls">
          179 -20 252 -232 32.99 1276.98999 251 hstemhm
          134.98 -97 callgsubr
          198.99 -97 callgsubr
          -208.99998 309.98 -122.98 19 callgsubr
          hintmask 00000000
          hintmask 01110100
          447 hmoveto
          1093.98 vlineto
          164 -76 callsubr
          52 92.02 87 63 -58 110 callgsubr
          vhcurveto
          hintmask 10111000
          -155 -103.01 -13 -184 vvcurveto
          hintmask 10110010
          -253.99 290.02 -10 callsubr
          -157.99 vvcurveto
          -81 -58 -47 -94 172 callgsubr
          -77 98 callsubr
          112 callsubr
          -41.98 vhcurveto
          hintmask 01110000
          -56.02 -245 rlineto
          hintmask 10110010
          -32.99 54 118 -20 -48 callgsubr
          hhcurveto
          299.01 161 144.99 239 hvcurveto
          hintmask 10111000
          250 -289 95.99 124 vvcurveto
          hintmask 01110100
          162 167 callgsubr
          -5 193 vvcurveto
          248 -194.99 129 82 callsubr
          -305 -188 -157 -304 vhcurveto
          -1099.98 vlineto
          endchar
        </CharString>
        <CharString name="grave">
          -445 1223.98 -97 callgsubr
          hstem
          52.98 534.02 vstem
          587 1223.99 rmoveto
          -199 134 callsubr
          rlineto
          -335.01 hlineto
          279 -312.02 rlineto
          endchar
        </CharString>
        <CharString name="gravecomb">
          -1131 1223.98 -97 callgsubr
          hstem
          -903 533.01 vstem
          -369.99 1223.99 rmoveto
          -199 134 callsubr
          rlineto
          -334 hlineto
          279 -312.02 rlineto
          endchar
        </CharString>
        <CharString name="greater">
          -76 122.98 980 hstem
          116 874.98 vstem
          116 1102.99 rmoveto
          -297 vlineto
          562 -191 -562 -194 rlineto
          -298 vlineto
          874.99 362 rlineto
          36 vlineto
          220 vlineto
          endchar
        </CharString>
        <CharString name="guillemotleft">
          -93 -18 callgsubr
          799 hstem
          69.98 872.02 vstem
          542.99 918 rmoveto
          -196 hlineto
          -277.01 -390 rlineto
          -6 vlineto
          -13 vlineto
          277.01 -390 rlineto
          196 hlineto
          82 callsubr
          400 rlineto
          635 399.02 rmoveto
          147 callgsubr
          hlineto
          -275.98 -390 rlineto
          -6 vlineto
          -13 vlineto
          275.98 -390 181 callgsubr
          -236 400 rlineto
          endchar
        </CharString>
        <CharString name="guillemotright">
          -93 113 callsubr
          799 hstem
          149 callgsubr
          875 vstem
          553.98 507.99 rmoveto
          19 vlineto
          29 callsubr
          390 rlineto
          -195 hlineto
          235 192 callsubr
          -235 -400 rlineto
          195 hlineto
          403 799 rmoveto
          147 callgsubr
          hlineto
          236 192 callsubr
          -236 -400 181 callgsubr
          276.99 390 rlineto
          6 vlineto
          13 vlineto
          endchar
        </CharString>
        <CharString name="guilsinglleft">
          -487 -18 callgsubr
          799 hstem
          154 callsubr
          473 vstem
          581 918 rmoveto
          147 callgsubr
          hlineto
          29 callsubr
          -390 rlineto
          -6 vlineto
          -13 vlineto
          276.99 -390 181 callgsubr
          -237.02 399 rlineto
          endchar
        </CharString>
        <CharString name="guilsinglright">
          -511 113 callsubr
          799 hstem
          -9 callsubr
          472 vstem
          274.98 916.99 rmoveto
          -195.99 hlineto
          -7 callgsubr
          192 callsubr
          82 callsubr
          -400 rlineto
          195.99 hlineto
          276.01 390 rlineto
          6 vlineto
          13 vlineto
          endchar
        </CharString>
        <CharString name="h">
          179 callgsubr
          96.99 -99 callsubr
          70 callsubr
          -19 callgsubr
          691 75 callsubr
          -116 -97.02 -66 callsubr
          165 callgsubr
          -69 hvcurveto
          570.02 -312 -1536 312 769.99 vlineto
          50 31 52 3 callgsubr
          82 hhcurveto
          104 60 -37.99 -135 hvcurveto
          -676.99 313 674.98 vlineto
          134 callsubr
          -146 115 -214 vhcurveto
          endchar
        </CharString>
        <CharString name="hyphen">
          -277 -3 callgsubr
        </CharString>
        <CharString name="i">
          -578 0 43 1158.99 318.99 hstemhm
          -48 callgsubr
          346.99 30 callsubr
          -102 callgsubr
          hintmask 00000000
          hintmask 11100000
          274.98 1520.99 rmoveto
          -104 196 callgsubr
          104 105 69 66 93 93.99 -69 66 -105 hvcurveto
          hintmask 11010000
          158 -1520.99 rmoveto
          1082 -313 -1082 vlineto
          endchar
        </CharString>
        <CharString name="iacute">
          62 callgsubr
          -35 callsubr
          1516.99 rmoveto
          -197 -313 7 callgsubr
          313 rlineto
          -221 -1516.99 rmoveto
          23 callgsubr
        </CharString>
        <CharString name="icircumflex">
          -559 0 43 1180.98 162 callgsubr
          128.98 -80 callsubr
          hintmask 11010000
          689.99 1236.99 rmoveto
          hintmask 10110000
          -46 callgsubr
          hintmask 11010000
          -309 -277.01 rlineto
          -16 241.99 vlineto
          hintmask 10110000
          0 callsubr
          247 hlineto
          -248 -1223.99 rmoveto
          23 callgsubr
        </CharString>
        <CharString name="idieresis">
          -559 0 43 1171.99 262 hstemhm
          -110 -59 callsubr
          -50.01001 -80 callsubr
          -50.02 -59 callsubr
          hintmask 00000000
          hintmask 11101000
          34 1477 rmoveto
          -81 -63 -57.02 -74 -74 63 -57 81 82 63 57 74 74 -63 57.02 -82 105 callsubr
          -82 -63 -57.02 -74 -74 63 -57 82 81 63 57 74 74 -63 57.02 -81 hvcurveto
          hintmask 11010000
          67 callsubr
          -1477 rmoveto
          23 callgsubr
        </CharString>
        <CharString name="igrave">
          62 callgsubr
          460.98 1204 45 callgsubr
          279 -313 rlineto
          235 -1204 rmoveto
          23 callgsubr
        </CharString>
        <CharString name="j">
          -588 -437 72 callgsubr
          1384 318.99 hstemhm
          99.98 348.02 -324.01 -97 callgsubr
          hintmask 00000000
          hintmask 11100000
          273.98 1520.99 rmoveto
          -105 196 callgsubr
          105 104.02 70 66 93 93.99 -70 66 187 callsubr
          hvcurveto
          hintmask 11010000
          162.02 -438.99 rmoveto
          182 callgsubr
          -1125 hlineto
          67 callsubr
          97 callgsubr
          -44.02 -87 -32.99 -28 4.02 5 -33 vhcurveto
          -247 vlineto
          -13 53 46 -4 53 hhcurveto
          244 146 139 255 hvcurveto
          endchar
        </CharString>
        <CharString name="k">
          -24 0 43 hstem
          196 callsubr
          vstem
          773.98 hmoveto
          358.01 hlineto
          -414 633 384 449 rlineto
          -374 hlineto
          -266 -319.02 -45 -58.98 rlineto
          832.98 182 callgsubr
          -1536.98 -97 callgsubr
          320 vlineto
          100 98.98 rlineto
          endchar
        </CharString>
        <CharString name="k.alt">
          -24 0 43 392.99 84 callsubr
          hstem
          166 callsubr
          311 vstem
          756.98 hmoveto
          358.01 hlineto
          -368 587.98 333 494.02 rlineto
          -360 hlineto
          -233 192 callsubr
          rlineto
          -70 853.02 169 callsubr
          -1536 311.01 436 81 hlineto
          endchar
        </CharString>
        <CharString name="k.alt2">
          -33 0 43 hstem
          166 callsubr
          311 vstem
          1111.98 hmoveto
          -426.99 576.98 384 505.02 rlineto
          -362 hlineto
          -290 192 callsubr
          rlineto
          877 169 callsubr
          -1559.98 311.01 463.99 vlineto
          327 -463.99 rlineto
          endchar
        </CharString>
        <CharString name="l">
          -578 0 43 hstem
          166 callgsubr
          -19 callgsubr
          432.99 hmoveto
          1536 -313 -1536 vlineto
          endchar
        </CharString>
        <CharString name="less">
          -87 -42 callsubr
          980 hstem
          50.99 871.99 vstem
          922.99 1103.99 rmoveto
          -872 -362 rlineto
          -37 vlineto
          -218.99 vlineto
          872 -362 rlineto
          299 vlineto
          -559 188.99 559 194 rlineto
          endchar
        </CharString>
        <CharString name="logicalnot">
          -4 633.99 133 callgsubr
          hstem
          760.99 150 callsubr
          vstem
          13 callsubr
          804.99 rmoveto
          -170.99 635 -260.01 150 callsubr
          260.01 vlineto
          133 callgsubr
          vlineto
          endchar
        </CharString>
        <CharString name="longs">
          -596 0 43 1261.98 252 hstem
          106.99 -28 callsubr
          106.99 hmoveto
          -99 callsubr
          1171.99 hlineto
          86 50.02 47 -42 callgsubr
          43 85 callgsubr
          -4 -6 3 callgsubr
          vhcurveto
          24 241 rlineto
          11.98 -51 callgsubr
          -53 9.01 -55 hhcurveto
          -258.99 -153 -135 -250 hvcurveto
          endchar
        </CharString>
        <CharString name="longst">
          207 -20 256 -236 43 811.99 227 222.98999 252 hstemhm
          70 callgsubr
          -99 callsubr
          306.99998 -97 callgsubr
          hintmask 00000000
          hintmask 10111100
          1221 -7 callgsubr
          rmoveto
          -78.01 -47 callgsubr
          23 87 hvcurveto
          509.01 180.99 227 -180.99 161 vlineto
          130 callsubr
          vlineto
          47 186 callgsubr
          -180 61 -205.99 hhcurveto
          -259.01 -152.99 -135 -250 hvcurveto
          -8 callsubr
          -158 -227 158 vlineto
          hintmask 01111100
          -855 312 1171.99 vlineto
          86 -56 callsubr
          47 91.02 76.99 64 -15 114 callgsubr
          25 vhcurveto
          -198 -25 callgsubr
          -227 114 callsubr
          -547 vlineto
          hintmask 10111100
          -234 123 -94 202 71 58 148 callgsubr
          17.98 52 vhcurveto
          235 vlineto
          -4.02 -21 1 callsubr
          14 callsubr
          -36.99 hhcurveto
          endchar
        </CharString>
        <CharString name="m">
          638 0 43 806.98 252 hstem
          196 callsubr
          310.99 -97 callgsubr
          310.99 -80 callsubr
          vstem
          1320.98 75 callsubr
          -145 -106.99 -62 -102.01 -69 hvcurveto
          114.02 -53 -101.01 -56 callsubr
          -129 hhcurveto
          -134 -104 -53 -8 callsubr
          -71 hvcurveto
          -10 123 rlineto
          -293 -1082 -97 callgsubr
          756 hlineto
          58 34 54 35.99 75 hhcurveto
          93 54.99 -29 -139 hvcurveto
          -681.98 -97 callgsubr
          721.98 vlineto
          22.02 vlineto
          132 callsubr
          110 callsubr
          54 41 79.01 hhcurveto
          92 54.99 -29 -136.99 hvcurveto
          -683.99 -80 callsubr
          683.99 vlineto
          310 153 callgsubr
          154 callsubr
          -205 vhcurveto
          endchar
        </CharString>
        <CharString name="macron">
          -86 189 callsubr
          171 hstem
          173.99 691.99 vstem
          866 189 callsubr
          rmoveto
          171 -692 -171 vlineto
          endchar
        </CharString>
        <CharString name="minus">
          -1 583.98 72 callgsubr
          hstem
          71 callsubr
          870.01 vstem
          1012 163 callsubr
          -870.01 -255 vlineto
          endchar
        </CharString>
        <CharString name="multiply">
          -45 150 callsubr
          973 hstem
          -76 callsubr
          960 vstem
          1019.99 994 rmoveto
          -181 179 -298.98 -305.01 -299.01 305.01 -181 -179 301 -307.02 -301 -308 181 -179 299.01 305.01 298.98 -305.01 181 179 -302 308 rlineto
          endchar
        </CharString>
        <CharString name="n">
          179 callgsubr
          98 19 callgsubr
          329.01001 -19 callgsubr
          709.98 1101.99 -68 callgsubr
        </CharString>
        <CharString name="nine">
          50 -18 -59 callgsubr
          223.98999 236 522.01001 252 hstem
          27 callsubr
          311 374.98999 311 vstem
          581 1477 rmoveto
          -298 -199 -235 -284 -290 156 -201.02 151 callgsubr
          98 14 callgsubr
          41 62 68 hvcurveto
          -226.02 1 callsubr
          171 callgsubr
          -100.99 -268 hhcurveto
          127 callsubr
          -261 25 hlineto
          466 287.01 283.99 504 hvcurveto
          111 vlineto
          193 callgsubr
          -210 221 -290 vhcurveto
          10 -774 rmoveto
          -132 -64 128 callsubr
          143.02 132 111 callsubr
          134 118.01 112 -9 callsubr
          -92 -192 hvcurveto
          -130 vlineto
          -59 189 callgsubr
          -85 callsubr
          97 callgsubr
          -87 hhcurveto
          endchar
        </CharString>
        <CharString name="nine.frac">
          650.99 169.98 93.01 159 219 173.01 -57 callgsubr
          1465 117 callsubr
          -132.02 -156 -179 -48 callgsubr
          13 callgsubr
          161 52 52 19 31 40 hvcurveto
          -130 -20 -93 -13 -8 callgsubr
          hhcurveto
          -13 -169.99 16 hlineto
          249.02 210 86 347 hvcurveto
          56 vlineto
          237 -145.02 88 -168 vhcurveto
          -98 -292 rmoveto
          65 37 -48 callsubr
          -82 callgsubr
          64 35 -29 1 callgsubr
          vhcurveto
          -78.01 79 callgsubr
          33 -46 callsubr
          hvcurveto
          endchar
        </CharString>
        <CharString name="nine.smcp">
          -61 -19 247.99 141 229.99 330.01 76 callgsubr
          69.98 -97 callgsubr
          296.00002 311 vstem
          529.98 1181.98 rmoveto
          -268 -192 -193.99 -230 -263 190 callsubr
          171 callsubr
          238 18 callgsubr
          76 29 47 60 hvcurveto
          -193 -29 -135 -24 -199 hhcurveto
          -18 -247.99 23.02 hlineto
          372 303 133 507 hvcurveto
          81 vlineto
          348 -211 132 -248 vhcurveto
          -25 callgsubr
          -430 rmoveto
          98 54.99 80.02 93 94 54 -10 callsubr
          -116.98 vhcurveto
          -116.02 vlineto
          17 callsubr
          -23 -44.02 1 callsubr
          -67.99 hhcurveto
          -106.99 -54 52 100 hvcurveto
          endchar
        </CharString>
        <CharString name="nine.sup">
          -13 170 92.99 165 callsubr
          219.01 172.99 -57 callgsubr
          800.99 117 callsubr
          -132 -156.02 -179 -48 callgsubr
          -77 callgsubr
          161 52 51 192 callgsubr
          31 41 hvcurveto
          -130 -20 -92 -13.99 -131.99 hhcurveto
          -13 -170 16 hlineto
          249.02 210 85.99 346.99 hvcurveto
          56.02 vlineto
          237 -5 callsubr
          -78 vhcurveto
          -79 vlineto
          -17.02 -14.99 -29 -16 -45 hhcurveto
          -71 -37 33 -43 callsubr
          hvcurveto
          endchar
        </CharString>
        <CharString name="nine.tnum">
          55 endchar
        </CharString>
        <CharString name="ntilde">
          195 callsubr
          116 callsubr
          98 19 callgsubr
          -213.98999 177 366 -102 callgsubr
          -269.00002 176 hintmask 00000000
          hintmask 11011010
          453 1338.98 rmoveto
          hintmask 11101001
          103 48 callgsubr
          -37.99 -31 -10 callsubr
          vhcurveto
          hintmask 11010110
          -98 12 callgsubr
          27 callgsubr
          -106 hhcurveto
          81 callgsubr
          hintmask 11011010
          177 -10 rlineto
          61 35.99 3 callgsubr
          2 callgsubr
          vhcurveto
          hintmask 11101010
          256.98 -237 -68 callgsubr
        </CharString>
        <CharString name="numbersign">
          75 0 43 366.98 70 callgsubr
          270.02 70 callgsubr
          375.03998 -84 callsubr
          47.98 1115.99 vstem
          1163.98 860 rmoveto
          180 134 callgsubr
          vlineto
          71 415.99 rlineto
          -191 hlineto
          -71 -415.99 rlineto
          -178 hlineto
          70 415.99 rlineto
          -188.99 hlineto
          -71 -415.99 rlineto
          -258 -180 227 hlineto
          -46 184 callgsubr
          rlineto
          -256 -180 225.02 hlineto
          -70 -409.99 rlineto
          191 hlineto
          69 409.99 rlineto
          179 hlineto
          -70 -409.99 rlineto
          190 hlineto
          70 409.99 rlineto
          256 180 -225.02 hlineto
          46 151 callgsubr
          rlineto
          -237 184 callgsubr
          rmoveto
          147 callsubr
          hlineto
          46 151 callgsubr
          rlineto
          -27 callsubr
          hlineto
          endchar
        </CharString>
        <CharString name="o">
          24 -12 callsubr
          -30 callgsubr
          vstem
          -76 callsubr
          550.99 -107 callgsubr
        </CharString>
        <CharString name="o.ss06">
          48 -12 callsubr
          52.98 -97 callgsubr
          449.00002 -28 callsubr
          52.98 550.99 rmoveto
          -21.01 vlineto
          -315.98 204 -234 333 333 203 234 315.98 60 callgsubr
          315.98 -203 235 -335.01 -331 -204 -235 -315.98 75 callgsubr
          -21.01 5 callgsubr
          71 -57 callsubr
          151.99 155 71 -136.99 -162 vhcurveto
          -21.01 vlineto
          -167 -71 -8 callgsubr
          -153 -154.99 -70 -26 callsubr
          167 vhcurveto
          endchar
        </CharString>
        <CharString name="oacute">
          24 -73 callsubr
          121 -80 callsubr
          hstem
          -30 callgsubr
          174 callgsubr
          200 callsubr
          159 callsubr
          278.02 -80 callsubr
          rlineto
          -893.01 -985.01 -107 callgsubr
        </CharString>
        <CharString name="ocircumflex">
          24 -73 callsubr
          141.01001 162 callgsubr
          -30 callgsubr
          hintmask 11101100
          979.99 1256 138 callgsubr
          -277.02 rlineto
          -16 194 callsubr
          vlineto
          hintmask 11011100
          156.02 138 42 callsubr
          hlineto
          -920 -692 -107 callgsubr
        </CharString>
        <CharString name="odieresis">
          24 -73 callsubr
          132 262 59 callgsubr
          -192.01 56 callgsubr
          -189.01 -99 callsubr
          hintmask 00000000
          hintmask 11101100
          -69 callsubr
          1495.98 rmoveto
          -81 -44 callsubr
          81 82 63 57.02 74 141 callsubr
          -74 63 -57.02 82 81 116 callgsubr
          -81 hvcurveto
          hintmask 11110010
          -767 -944.99 -107 callgsubr
        </CharString>
        <CharString name="oe">
          716 -20 252 97 callsubr
          130 callsubr
          203.99998 252 hstem
          79.99 -99 callsubr
          407.99998 -35 callsubr
          334.01 305.99 vstem
          1768.98 611.98 rmoveto
          300.01 -168.98 190 -297 vhcurveto
          -145.02 1 -116 -51 110 callgsubr
          165 callgsubr
          rrcurveto
          188 callgsubr
          -87 -122 51 -155.02 hhcurveto
          -332 -182.99 -235 -315.98 hvcurveto
          -21.01 vlineto
          -315.98 26 callsubr
          -234 334.01 156 123 50.99 88 86 vhcurveto
          -87 89 28 callgsubr
          -51.99 153 hhcurveto
          186 149.02 59 63 149 callgsubr
          hvcurveto
          -80 200 rlineto
          69 callgsubr
          -86 -70 -29.99 -143 hhcurveto
          -141 -78 91 117 -19.99 hvcurveto
          640.99 hlineto
          -969 -42 callgsubr
          rmoveto
          -167 -51 -8 callgsubr
          -152 -155 -50 -26 callsubr
          167 60 callgsubr
          162 51 -57 callsubr
          152 155.02 -56 callsubr
          -136.99 -162 vhcurveto
          663 30 callgsubr
          rmoveto
          -334 hlineto
          118 17.02 51 86 106 hhcurveto
          128 callsubr
          47 -68 -110 hvcurveto
          endchar
        </CharString>
        <CharString name="ograve">
          24 -73 callsubr
          121 -80 callsubr
          hstem
          -30 callgsubr
          vstem
          750.98 158 callgsubr
          -335 hlineto
          279 174 callsubr
          -437 -671.99 -107 callgsubr
        </CharString>
        <CharString name="one">
          50 0 43 1373.01999 -84 callsubr
          505.99 -28 callsubr
          817.99 hmoveto
          1456.99 189 callgsubr
          vlineto
          -619.99 -220 rlineto
          -249 vlineto
          339 100 rlineto
          -1088 vlineto
          endchar
        </CharString>
        <CharString name="one.smcp">
          -61 0 43 hstem
          446.99 19 callgsubr
          vstem
          757.99 hmoveto
          1160.99 -28 vlineto
          -581 -185 rlineto
          -239 vlineto
          298 -82 callgsubr
          rlineto
          -797.98 vlineto
          endchar
        </CharString>
        <CharString name="one.sup">
          0 43 104 callsubr
          hmoveto
          33 callgsubr
        </CharString>
        <CharString name="one.tnum">
          35 endchar
        </CharString>
        <CharString name="ordfeminine">
          -224 690.99 143.99 198.01 117 177.98999 148 hstemhm
          194 callgsubr
          175 -159.01001 173.01 254.00002 175 hintmask 11101100
          779.98 704.98 rmoveto
          -18.99 58 -7 58 65 vvcurveto
          314 vlineto
          183 -117 93 -174 -188 -123 -98 -135 vhcurveto
          190 callgsubr
          -14.01 rlineto
          64 52 35 86 78 38 -44.99 -82 vhcurveto
          -51 -102 vlineto
          hintmask 11110100
          -230 -111 13 callgsubr
          -146.99 153 callgsubr
          89 -8 callsubr
          -29 callsubr
          94 66 -95 callsubr
          44 41 hvcurveto
          4 -24 6 -23 7 -21.02 rrcurveto
          -292 218 rmoveto
          58 51 52 116 vhcurveto
          157 callsubr
          -136 hlineto
          -33 -36 -62 -29 -53 hhcurveto
          -80 -37 32.99 55 hvcurveto
          endchar
        </CharString>
        <CharString name="ordmasculine">
          -193 689.99 146 491.98999 148 hstem
          113 callsubr
          175 342.98999 175 vstem
          113 callsubr
          1120.99 rmoveto
          -77 vlineto
          -206.99 134 -147 214 213 132 147 -89 callgsubr
          vhcurveto
          77 vlineto
          -89 callgsubr
          -132 148 -215 -212 -134 -148 -206.99 vhcurveto
          175 -77 rmoveto
          77 vlineto
          117 56 -42 callgsubr
          115 116 56 -8 callsubr
          -117 vhcurveto
          -77 vlineto
          -118.99 -56 -89 -114.01 -116.99 -56 89 -18 callgsubr
          vhcurveto
          endchar
        </CharString>
        <CharString name="oslash">
          23 -73 callsubr
          -95 211 -40.96 40.96 hstemhm
          -30 callgsubr
          hintmask 00000000
          hintmask 10101100
          892.99 1006.98 rmoveto
          -48 callgsubr
          211 rlineto
          -168 hlineto
          hintmask 11011100
          -70 109 callsubr
          rlineto
          18 68 callsubr
          -61 8.99 131 callsubr
          hhcurveto
          -332 -184 -235 -315.98 hvcurveto
          -21.01 vlineto
          -198 72 -165.99 194 callgsubr
          172 callgsubr
          vhcurveto
          -104 -213.97 rlineto
          168 hlineto
          152 callsubr
          147.98 rlineto
          -81 callsubr
          52 58 -8 63 hhcurveto
          332 184 234 315.98 hvcurveto
          -52 callgsubr
          hintmask 10101100
          194.99 -69.98 163 -131.02 98 vhcurveto
          hintmask 11011100
          -520.99 -477 5 callgsubr
          52 -57 callsubr
          152 98 callsubr
          22 14 callsubr
          -7 20.01 vhcurveto
          -241 -494 rlineto
          -21 50 153 callsubr
          64 70 vvcurveto
          409.99 hmoveto
          -167 -52 -8 callgsubr
          -152 -22 -19 1.99 5 -18 vhcurveto
          236.02 485 rlineto
          18.99 -49 8 -37 callsubr
          -64 vvcurveto
          endchar
        </CharString>
        <CharString name="otilde">
          24 -73 callsubr
          116 callsubr
          -76 callsubr
          312.01 -178.01 177 409.98999 176 -175 -99 callsubr
          hintmask 00000000
          hintmask 11101010
          956.99 1525.99 rmoveto
          -13 callgsubr
          hintmask 11010101
          -98.02 12 callgsubr
          27 callgsubr
          -106 hhcurveto
          81 callgsubr
          177 -10 rlineto
          61 36 3 callgsubr
          45 vhcurveto
          hintmask 11101001
          199 callgsubr
          hintmask 11101010
          134 95 -42 callsubr
          147 hvcurveto
          hintmask 11101001
          -897 -975 -107 callgsubr
        </CharString>
        <CharString name="p">
          22 -12 callsubr
          196 callsubr
          362.99 123 callgsubr
          -115 -86 -46 -77 -63 hvcurveto
          -11 103.02 rlineto
          -290.02 -1498 -97 callgsubr
          509 hlineto
          -71 62 83 -42 110 -34 callsubr
          -55.99 98 callgsubr
          62.02 -30 vhcurveto
          424 vlineto
          63 30 54.99 28 callsubr
          89 hhcurveto
          138 51 171 callsubr
          -171 hvcurveto
          endchar
        </CharString>
        <CharString name="p.ss06">
          44 -12 callsubr
          196 callsubr
          382.99 -28 callsubr
          24 callsubr
          -115 -86 -46 -78 -63 hvcurveto
          -12 104.02 rlineto
          -289.01 -1498 -97 callgsubr
          509 hlineto
          -71 62 83 -42 110 hhcurveto
          273 167 -7 callgsubr
          315 hvcurveto
          112 callsubr
          vlineto
          -35 callsubr
          -167 221 -275 vhcurveto
          130 -571 rmoveto
          -165.99 -29 callgsubr
          -133 -140 -85.01 -57 28 callsubr
          55 -34 vhcurveto
          444.99 vlineto
          56 34 -56 callgsubr
          3 callgsubr
          27 callgsubr
          hhcurveto
          138 71 -126 130 callgsubr
          hvcurveto
          endchar
        </CharString>
        <CharString name="paragraph">
          -128 -31 callgsubr
          653.98 224 vstem
          653.99 hmoveto
          224 -66 callgsubr
          -307.02 hlineto
          -318 -174 -199.99 -268 184 callgsubr
          174 -198 318 hvcurveto
          83 hlineto
          endchar
        </CharString>
        <CharString name="parenleft">
          -410 180 callgsubr
          122.98 256 vstem
          122.98 591.99 rmoveto
          -26 vlineto
          -557 263 -361 236 -99.98 vhcurveto
          191 callsubr
          162 rlineto
          -150 112 -152 259.97 482.02 vvcurveto
          3 callgsubr
          vlineto
          482.02 152 260 150 110 vhcurveto
          86 callsubr
          163 rlineto
          -236 -100 -263 -361 -556 vvcurveto
          endchar
        </CharString>
        <CharString name="parenright">
          -409 180 callgsubr
          341.99 275.98 vstem
          617.98 565.99 rmoveto
          26 vlineto
          531.99 -273 385 -245 100 vhcurveto
          -37 callsubr
          -162 rlineto
          146.99 -110 155.02 -261 -482.02 vvcurveto
          -29.99 vlineto
          -482.02 -154 -260.98 -25 callgsubr
          -111 vhcurveto
          -76 callsubr
          -162 rlineto
          245 99.98 273 386 531.99 vvcurveto
          endchar
        </CharString>
        <CharString name="percent">
          385 -20 177 322.98 177 143 177 323 177 hstemhm
          93 203.98 232.01001 204 53.98999 204 233 204 hintmask 11111011
          93 1175.98 rmoveto
          66 callsubr
          vlineto
          -163 110 -136 210.99 vhcurveto
          hintmask 11111111
          212 107 136 163 hvcurveto
          76.99 vlineto
          165 -107 136 -214 vhcurveto
          hintmask 11111011
          -209 -110 -136 -165 hvcurveto
          382 -1066.99 172 callsubr
          -711 -1138.01 rlineto
          -29 912.02 rmoveto
          76.99 vlineto
          65 38 59 77 vhcurveto
          hintmask 11111111
          80 37 -59 -65 hvcurveto
          66 callsubr
          vlineto
          67 callgsubr
          -36 86 callsubr
          -79.01 vhcurveto
          hintmask 11111011
          99 callsubr
          -38 191 callsubr
          68 callgsubr
          hvcurveto
          490 -742.01 rmoveto
          -77 vlineto
          -163.99 111 -136 211 211.99 107 136 163.99 vhcurveto
          77 vlineto
          164 -107 136 -214 -209 -111 -136 -164 vhcurveto
          204 -77 rmoveto
          77 vlineto
          64 38 59 18 callgsubr
          79.02 -95 callsubr
          -59 -64 vhcurveto
          -77 vlineto
          -64 2 callsubr
          86 callsubr
          -94 -69 -49 191 callsubr
          64 vhcurveto
          endchar
        </CharString>
        <CharString name="period">
          -524 135 callgsubr
          -35 callsubr
          hstem
          122 169 callgsubr
          vstem
          296 317.99 rmoveto
          54 callsubr
        </CharString>
        <CharString name="periodcentered">
          -495 523.98 330.01 hstem
          138.99 184 callsubr
          vstem
          314 854 rmoveto
          -105 -70 69 callsubr
          -93 -93 70 -72 105 104 70 72 93 93 -70 154 callgsubr
          -104 hvcurveto
          endchar
        </CharString>
        <CharString name="plus">
          -24 542.98 280 342.04 -84 callsubr
          404.99 293 vstem
          1049.99 822.99 rmoveto
          -351.99 383 -293 -383 -353 -280 353 -397 293 397 351.99 hlineto
          endchar
        </CharString>
        <CharString name="plusminus">
          -29 0.98 255.01 447.00002 -59 callgsubr
          hstem
          409.98 272.99 vstem
          682.99 963.99 rmoveto
          327 -273 -327 -322.99 -261 322.99 -353.02 273 353.02 320 261 vlineto
          -895 -963.01 rmoveto
          869.99 255.02 -869.99 hlineto
          endchar
        </CharString>
        <CharString name="q">
          23 -20 22 callgsubr
          2 callsubr
          -114.01 rlineto
          27 callgsubr
          -64 -88 -56 callsubr
          -120.02 hhcurveto
          -273.98 -149 50 callgsubr
          149 82 callsubr
          272 109 83 42 70 62 vhcurveto
          -508 313 1498 53 callsubr
          133 callgsubr
          51 127 139 87 55 -47 callgsubr
          -61 110 callsubr
          vhcurveto
          -429 vlineto
          -60 84 callgsubr
          -55 -35.99 -89.01 hhcurveto
          endchar
        </CharString>
        <CharString name="q.ss06">
          46 -20 40 callgsubr
          798.99 1082 rmoveto
          -21 -115.02 rlineto
          151 callsubr
          -64 -88 -56 callsubr
          -120 hhcurveto
          -274 -169 -222 30 callsubr
          hvcurveto
          -21.01 vlineto
          -314.98 169 -235 272 109 82 42 70 63 vhcurveto
          -508 313 1498 vlineto
          -488 -850 44 callgsubr
          72 127 139 82 -56 callgsubr
          -29 -51 callgsubr
          35 vhcurveto
          -448 vlineto
          -55 -35 -55.99 84 callgsubr
          13 callgsubr
          hhcurveto
          endchar
        </CharString>
        <CharString name="question">
          -100 -12 327.98 907 253 hstemhm
          38.99 -102 callgsubr
          -41.00002 169 callgsubr
          -312.99 270 31 -97 callgsubr
          hintmask 00000000
          hintmask 11001100
          345.99 456.99 rmoveto
          151 callgsubr
          hlineto
          31 callsubr
          104 112 callsubr
          64 75.98 68 rrcurveto
          hintmask 11100100
          133.02 123 110 92 190 callgsubr
          vvcurveto
          256 -171 139 -285 -258.99 -201 -126.01 -291.98 -4 vhcurveto
          313 hlineto
          117 31 callsubr
          71 47.99 77 hhcurveto
          94 -56 callsubr
          -66 callsubr
          -106 -88 -61.99 131 callsubr
          -93 -78 hvcurveto
          hintmask 11001100
          -111 -95.01 -35 156 callsubr
          -177 vvcurveto
          hintmask 11010000
          139 -141 rmoveto
          -104 -70 -71 -93 -93 70 -70.98 104 104 70 146 callgsubr
          93 -70 71 -104 hvcurveto
          endchar
        </CharString>
        <CharString name="questiondown">
          -100 -385 252 907.98 328 hstemhm
          107 callgsubr
          -80 callsubr
          -4.02 169 callgsubr
          -313.99 270 -3.98999 -99 callsubr
          hintmask 00000000
          hintmask 11010000
          553.98 774.98 115 callsubr
          hintmask 11101000
          130 16 callsubr
          rmoveto
          184 callgsubr
          hlineto
          14 callsubr
          187 callsubr
          -12 -51 callgsubr
          -76 -68 rrcurveto
          hintmask 11100100
          -132 -122 -120.02 -102.01 -173 vvcurveto
          -257 172.02 -138 286 257.98 201.02 126.01 291.98 3.99 vhcurveto
          -311.99 hlineto
          -117 -3 -69 97 callgsubr
          -86 hhcurveto
          -83 -51 callgsubr
          -26 callgsubr
          99 104 -43 callsubr
          149 callsubr
          92 151 callsubr
          hvcurveto
          hintmask 11101000
          111 30 callgsubr
          30 157 callsubr
          177 vvcurveto
          endchar
        </CharString>
        <CharString name="quotedbl">
          -477 974.99 561.99 hstem
          45.99 -41 callgsubr
          123.99998 145 callgsubr
          261 1397.99 rmoveto
          139 -215 -561.99 174 vlineto
          379 423 rmoveto
          139 -214.02 -561.99 190 callgsubr
          vlineto
          endchar
        </CharString>
        <CharString name="quotedblbase">
          -282 30 callsubr
          595.98 hstem
          151.98 247 105.01001 84 callsubr
          vstem
          398.99 63 rmoveto
          1 204 rlineto
          -248 -203 hlineto
          -136.99 -47 callgsubr
          -94 -46 -82 vhcurveto
          151 -80 rlineto
          97 -34 callgsubr
          77 163 140 vvcurveto
          351.99 hmoveto
          1 204 rlineto
          -247.99 -203 hlineto
          -136.99 -41 -94 -46 -82 vhcurveto
          151 -80 rlineto
          97 -34 callgsubr
          86 163 140 vvcurveto
          endchar
        </CharString>
        <CharString name="quotedblleft">
          -279 1043.98 530 hstem
          128 callsubr
          237.99 109.99998 237.01 vstem
          128 callsubr
          141 callgsubr
          46 77 vhcurveto
          99 callgsubr
          79 rlineto
          172 callgsubr
          13 callgsubr
          -87 170 callsubr
          -133 vvcurveto
          348 hmoveto
          -159 237.02 158 vlineto
          128 40.98 88 46.02 77 vhcurveto
          -141 79 rlineto
          -97.02 13 callgsubr
          -86 170 callsubr
          -133 vvcurveto
          endchar
        </CharString>
        <CharString name="quotedblright">
          -273 178 callgsubr
          162.98 238.01 116.00002 237.99 vstem
          401 1374.99 rmoveto
          161.02 -238.02 -160.02 vlineto
          -129 -40.98 -87 -46.02 -77 vhcurveto
          142 -80 rlineto
          97 151 callsubr
          86.02 -50 callgsubr
          133 vvcurveto
          354 hmoveto
          -14 callgsubr
        </CharString>
        <CharString name="quoteleft">
          -637 1043.98 530 hstem
          166 callsubr
          237.99 vstem
          166 callsubr
          141 callgsubr
          2 callgsubr
          77 vhcurveto
          -141 79 rlineto
          -96.99 13 callgsubr
          165 callgsubr
          170 callsubr
          -133 vvcurveto
          endchar
        </CharString>
        <CharString name="quoteright">
          -648 178 callgsubr
          181 callsubr
          237.99 vstem
          386.99 1374.99 rmoveto
          -14 callgsubr
        </CharString>
        <CharString name="quotesinglbase">
          -600 -309 551.99 hstem
          151.98 247 vstem
          398.99 63 rmoveto
          1 180 rlineto
          -248 -179 hlineto
          -128 -47 callgsubr
          -88 -46 -77 vhcurveto
          71 callsubr
          -80 rlineto
          97.02 84.99 86 154 133 vvcurveto
          endchar
        </CharString>
        <CharString name="quotesingle">
          -807 968.99 567 hstem
          -48 callsubr
          225 vstem
          279 1378.98 rmoveto
          157.02 -225 -567.01 194 vlineto
          endchar
        </CharString>
        <CharString name="r">
          -370 0 43 752.99 305.99 hstem
          196 callsubr
          vstem
          646.98 75 callsubr
          -105 -81 -57 172 callgsubr
          -53 hvcurveto
          -10 133.02 rlineto
          -293 -1082 -97 callgsubr
          692 hlineto
          69 28 callsubr
          -46 callsubr
          35 110 hhcurveto
          31 47.99 -5 -3 29 hvcurveto
          4.02 302 rlineto
          8 -23 -36 4 -32 hhcurveto
          endchar
        </CharString>
        <CharString name="registered">
          477 -20 28 callgsubr
          547.98999 134 246.01001 132.99 184.99998 125 hstem
          86 122 292.98 150.99 301.02 150.99 279.01 -91 callgsubr
          308 410.01 rmoveto
          95 -27.01 -9 callsubr
          1 callgsubr
          42 vhcurveto
          70 40 -95 callsubr
          -56 callgsubr
          76 vvcurveto
          172.02 -127 90.99 -198 vhcurveto
          -281 -850 151 337 158 hlineto
          104 39.02 -45 -94 hvcurveto
          -54 vlineto
          -29 0 -81 107 callsubr
          -34 vhcurveto
          155 16 hlineto
          -13 30 -4 47 50 vvcurveto
          -320 327.99 rmoveto
          -132 246 130 hlineto
          130 45 -33 -97.02 66 callsubr
          -81 16 callgsubr
          -92 hvcurveto
          endchar
        </CharString>
        <CharString name="ring">
          -452 1103.99 49 callgsubr
          -18 callgsubr
          118 211.98999 118 vstem
          343 1506.98 rmoveto
          48 callsubr
          87 callsubr
          hvcurveto
          -308 vmoveto
          118 callgsubr
          132 callsubr
          41 -49 -58 -58 -41 -47 -64.99 hvcurveto
          endchar
        </CharString>
        <CharString name="s">
          -79 -20 15 callgsubr
          686.98999 217 hstemhm
          81 297 290.99 -99 callsubr
          -300.00002 301.02 hintmask 11101000
          462.99 430 rmoveto
          -76 callgsubr
          hintmask 11110000
          107 44 -52 -82 hvcurveto
          312 hlineto
          206 -177 145 -285 29 callsubr
          -161 -158 -181.99 vhcurveto
          hintmask 11101000
          142 callsubr
          vhcurveto
          endchar
        </CharString>
        <CharString name="section">
          163 -441.99 -87 callgsubr
          1412.98 252 hstemhm
          93.98 -97 callgsubr
          -289.98999 -102 callgsubr
          425 -99 callsubr
          -286.00002 307.99 hintmask 11011000
          1030.98 223.99 rmoveto
          hintmask 11010100
          100 58 57 14 callgsubr
          122 vvcurveto
          239 -175.99 104 -308 18 callgsubr
          vhcurveto
          -225.02 59 -50 32 87.99 vvcurveto
          72 62 58 151 vhcurveto
          hintmask 11011000
          142 -17 callsubr
          -76 -97 hvcurveto
          311.01 hlineto
          274 -199 151 -326 -319 -207 -151 -233 -133 48.99 72 callsubr
          88 -29 callgsubr
          vhcurveto
          hintmask 11101000
          -101 -59 -58 -92 -121.02 vvcurveto
          -239 181 -101.99 301.02 99 callsubr
          vhcurveto
          215.98 -60 62.02 -40 -77.98 vvcurveto
          -76 -73.02 -10 callsubr
          -139 -116 -121 26 135 vhcurveto
          169 callsubr
          hlineto
          -320 275 -94 273 317.01 -89 callgsubr
          131.99 243.02 vhcurveto
          hintmask 11011000
          133.98 -47 90 -88 -43 callsubr
          vhcurveto
          hintmask 11100100
          -624.99 343 rmoveto
          54 18.99 46 43 29 vhcurveto
          40 -15.01 44 -12.99 47 -13 rrcurveto
          216.99 -65 64 -45 -86 vvcurveto
          -54 -24 -45 -18 callsubr
          -29 vhcurveto
          -40 107 callsubr
          -44 13 -47 12 rrcurveto
          -226 -46 callsubr
          97 callgsubr
          34 96.99 vvcurveto
          endchar
        </CharString>
        <CharString name="semicolon">
          -569 792.98 329.99 hstemhm
          106.99 184 callsubr
          -287.99 256 hintmask 00000000
          hintmask 11000000
          280.98 41 callgsubr
          hintmask 10100000
          143 -1079.99 rmoveto
          15 callsubr
          209 rlineto
          -256.98 158 callsubr
          -45 -91.02 vhcurveto
          165 callsubr
          -80 rlineto
          116 100 86.02 199 callsubr
        </CharString>
        <CharString name="seven">
          50 0 43 1160.99 76 callgsubr
          56.99 1038.99 vstem
          1095.99 1281.99 rmoveto
          174 -1038.99 156 callgsubr
          710 vlineto
          -555.01 -1204 rlineto
          70 callsubr
          hlineto
          endchar
        </CharString>
        <CharString name="seven.frac">
          1280 -38 callgsubr
          1332.98 rmoveto
          120.01 -642.99 170 callgsubr
          418 vlineto
          -328 -616.02 rlineto
          225 hlineto
          endchar
        </CharString>
</ttFont>
